<svg id="Слой_1" data-name="Слой 1" xmlns="http://www.w3.org/2000/svg" viewBox="0 0 2508.3 1355.65"><defs><style>.cls-1{fill:#ebf3fa;}.cls-2{fill:#82b378;}.cls-3{fill:#a8d29f;}.cls-4{fill:#233862;}.cls-5{fill:#b7d3f3;}.cls-6{fill:#d2e3fc;}.cls-7{fill:#c5dcf8;}.cls-8{fill:#d1e6fa;}.cls-9{fill:#ffb27d;}.cls-10{fill:#932722;}.cls-11{fill:#163560;}.cls-12{fill:#b5453c;}.cls-13{fill:#1c468a;}.cls-14{fill:#ed975d;}.cls-15{fill:#fff;}.cls-16{fill:#96302a;}.cls-17{fill:#97badd;}.cls-18{fill:#fcecdb;}.cls-19{fill:#78acea;}.cls-20{fill:#afcdfb;}.cls-21{fill:#5e92dd;opacity:0.4;isolation:isolate;}.cls-22{fill:#95c0f4;}.cls-23{fill:#8cbaf1;}.cls-24{fill:#c0d8fb;}.cls-25{fill:#fffbf8;}.cls-26{fill:#699dee;}.cls-27{fill:#f99746;}.cls-28{fill:#ffb176;}.cls-29{fill:#b25918;}.cls-30{fill:#ed7d2b;}.cls-31{fill:#2a4e96;}.cls-32{fill:#ed985f;}.cls-33{fill:#2c3a64;}.cls-34{fill:#ffe4cc;}.cls-35{fill:#f77548;}.cls-36{fill:#efcbab;}.cls-37{fill:#ff7d5a;}.cls-38{fill:#2e3552;}</style></defs><path class="cls-1" d="M414,1649.4s-295.8-320.7-50-667.9c218.1-308.1,472.3-287,658.8-162,79.5,53.2,308.5,6.6,503.4-306.9C1792,85.1,2713.6,344.4,2545.6,1002.1c-81.3,318.3,247.5,329.9,79.9,648Z" transform="translate(-248.7 -303.35)"/><path class="cls-2" d="M1727.2,1483.7s-56.3-65.7-3.5-107.5c0,0,38.6-23.4,70.1-21.5,0,0-44.6,74.8-30.2,82.2s43.7-86.9,43.7-86.9,87.9-8.5,116.1,5.1c0,0-75.1,61.5-59.3,65.1s97-56.7,97-56.7,81.8,13.9,77.4,63.8-32.5,65.3-44.9,64-84.8-29-86.4-18.8,42,43.3,72.6,44.9c0,0-57.7,63.6-96,45.2s-41.6-47.4-65.5-58.3-44.3-10.9-34.4.2,53.1,21.9,66.8,46.1,25.9,40.5-13.7,34.5-104.1-35-106.9-68.2Z" transform="translate(-248.7 -303.35)"/><path class="cls-2" d="M1998.4,1428.7s-222.1-8.6-271.2,55c0,0-10.8,32.5-44.2,62.1l-5.2,14.2s38.5-40.6,52.3-43C1730.1,1516.9,1708.5,1438.2,1998.4,1428.7Z" transform="translate(-248.7 -303.35)"/><path class="cls-2" d="M1683,1545.8s-47.7,35.3-51,98.3l8.7.8s15.2-65.1,42.8-90.6S1683,1545.8,1683,1545.8Z" transform="translate(-248.7 -303.35)"/><path class="cls-3" d="M1146.8,946.8s86.2-48.3,46-113.8c0,0-32.2-40.2-66.6-50.6,0,0,18.4,97.7,0,100s-12.6-110.3-12.6-110.3-90.8-43.7-126.4-40.2c0,0,56.3,95.4,37.9,93.1s-81.6-98.8-81.6-98.8-93.1-17.2-108,37.9,9.2,82.7,23,86.2,102.3,2.3,100,13.8-62,29.9-95.4,19.5c0,0,36.8,90.8,85,86.2s63.2-34.5,93.1-36.8,51.7,5.8,36.8,13.8-65.5,2.6-89.6,23.2-43.7,33.2,1.2,42.3,125.2,3.5,141.3-31Z" transform="translate(-248.7 -303.35)"/><path class="cls-2" d="M877.9,781.3s241.3,78.1,268.9,165.5c0,0-1.2,39.1,23,83.9v17.2s-25.3-58.6-39.1-66.6C1130.7,981.3,1184.7,905.4,877.9,781.3Z" transform="translate(-248.7 -303.35)"/><path class="cls-2" d="M1169.8,1030.7s37.2,56.5,16,125.3l-9.6-2.6s9.3-75.8-10.2-113.9S1169.8,1030.7,1169.8,1030.7Z" transform="translate(-248.7 -303.35)"/><path class="cls-3" d="M1672.8,1331.8s-118.1-66.2-63-155.9c0,0,44.1-55.1,91.4-69.3,0,0-25.2,133.9,0,137s17.3-151.2,17.3-151.2,124.4-59.8,173.3-55.1c0,0-77.2,130.7-52,127.6s111.8-135.4,111.8-135.4,127.6-23.6,148.1,52-12.6,113.4-31.5,118.1-140.2,3.2-137,18.9,85,40.9,130.7,26.8c0,0-50.4,124.4-116.6,118.1s-86.6-47.2-127.6-50.4-70.9,7.9-50.4,18.9,89.8,3.6,122.9,31.7,59.8,45.4-1.6,58-171.7,4.7-193.7-42.5Z" transform="translate(-248.7 -303.35)"/><path class="cls-2" d="M2041.4,1105s-330.8,107.1-368.6,226.8c0,0,1.6,53.6-31.5,115v23.6s34.7-80.3,53.6-91.4C1694.9,1379.1,1620.9,1275.1,2041.4,1105Z" transform="translate(-248.7 -303.35)"/><path class="cls-2" d="M1641.3,1446.8s-51,77.5-21.9,171.8l13.1-3.5s-12.7-103.9,14-156.1S1641.3,1446.8,1641.3,1446.8Z" transform="translate(-248.7 -303.35)"/><path class="cls-4" d="M562.2,1007.5s-20.6,17.1,2.1,38.8c0,0-19.5,6.8-25.8,2.2a16.55,16.55,0,0,0,2.5,3.4s-19.9,1.8-28.5-4-8.9-108.2,47.2-99.8c0,0,46.8-6.1,45.4,48.5s16.3,53.6,16.3,53.6-4.8,2.7-7.2,2.8c0,0-3.6-1.1-4.3-3,0,0,.8,3,1.8,3.9,0,0-19,2.9-29-3.8S560,1018.8,562.2,1007.5Z" transform="translate(-248.7 -303.35)"/><path class="cls-4" d="M559.2,1035.4s-16-15.2-22.6-30c-4.7-10.6-27.5-53.3,15.1-57.7,0,0,30.4-1.4,43.6,3.3,10.5,3.8,26.6,13.6,21.1,53l-.7,13Z" transform="translate(-248.7 -303.35)"/><path class="cls-5" d="M510.5,1339.1c-1.8-44.9-5.8-83.9-10.5-111.2-7.5-43.4-14.3-68.4-14.3-68.7-1-3.8-15.3-19.3-47-18.8s-28.8,20.7-28.8,20.7h0a11,11,0,0,0,.2,1.8c.3,1,29.5,106.8,28.2,243.3,0,1.9-.2,5.2-.1,7.4,0,0,73.6,1.9,73.6,0C514.4,1401.8,513.1,1368.7,510.5,1339.1Z" transform="translate(-248.7 -303.35)"/><path class="cls-6" d="M519.7,1405.6c0,1.9-1,3.4-2.2,3.4h0c-1.2,0-2.2-1.6-2.2-3.4H452.2c0,1.9-1,3.4-2.2,3.4h0c-1.2,0-2.2-1.6-2.2-3.5a970.2,970.2,0,0,0-5.2-107.8c-8.4-80.3-23.9-134-24.1-134.7a5.54,5.54,0,0,1-.2-1.8s-3-20.2,28.8-20.7,46.1,15,47,18.8c0,.2,3.9,14.3,9,39.8,1.7,8.4,3.5,18.1,5.4,28.9,4.7,27.2,8.6,66.3,10.5,111.2C521.4,1368.7,522.3,1393.7,519.7,1405.6Z" transform="translate(-248.7 -303.35)"/><path class="cls-7" d="M443,1409H690.3s-5.8-23.3-149-19.8C440,1391.6,443,1409,443,1409Z" transform="translate(-248.7 -303.35)"/><path class="cls-8" d="M422.9,1652.4c28.7-145.2,21.3-234.2,21.3-235.4-.1-2.2,4-4.3,6.3-4.3s12.1-.7,13.3,1.2c1.5,2.5,7.3,112.3-35.5,238.5Z" transform="translate(-248.7 -303.35)"/><path class="cls-8" d="M653.8,1652.4c-28.7-145.2-21.3-234.2-21.3-235.4.1-2.2-4-4.3-6.3-4.3s-12.1-.7-13.3,1.2c-1.5,2.5-7.3,112.3,35.5,238.5Z" transform="translate(-248.7 -303.35)"/><path class="cls-8" d="M699.5,1652.4c-28.7-145.2-21.3-234.2-21.3-235.4.1-2.2-4-4.3-6.3-4.3s-12.1-.7-13.3,1.2c-1.5,2.5-7.3,112.3,35.5,238.5Z" transform="translate(-248.7 -303.35)"/><path class="cls-8" d="M468.9,1652.4c28.7-145.2,21.3-234.2,21.3-235.4-.1-2.2,4-4.3,6.3-4.3s12.1-.7,13.3,1.2c1.5,2.5,7.3,112.3-35.5,238.5Z" transform="translate(-248.7 -303.35)"/><path class="cls-5" d="M443.1,1403H690.4a5.12,5.12,0,0,1,5.1,5.1v3.3a5.12,5.12,0,0,1-5.1,5.1H443.1a5.12,5.12,0,0,1-5.1-5.1v-3.3A5.12,5.12,0,0,1,443.1,1403Z" transform="translate(-248.7 -303.35)"/><path class="cls-9" d="M821.3,1658.7c-9,0-27.7,2.3-35.8-7.6s-25.9-14.9-28.1-18c-1.2-1.7.4-9.3,2.2-16h0c4.4-6.1-2.7-14.3-2.7-14.3l23.7,1.6s11.3,15,19.6,27c3.2,4.6,12.7,11.4,18.4,13.5,7.4,2.7,14.8,4.3,17.5,6.9C840.8,1656.4,830.4,1658.7,821.3,1658.7Z" transform="translate(-248.7 -303.35)"/><path class="cls-10" d="M821.3,1658.7c-9,0-27.7,2.3-35.8-7.6s-25.9-14.9-28.1-18c-1.2-1.7-1.3-8.7,2.2-16h0s14.9,6.1,23.3,17.8,30.8,16.8,35.6,10l.1-.1c7.4,2.7,14.8,4.3,17.5,6.9C840.8,1656.4,830.4,1658.7,821.3,1658.7Z" transform="translate(-248.7 -303.35)"/><polygon class="cls-10" points="508.7 1329.75 517.8 1349.05 523.8 1349.75 522.9 1332.45 508.7 1329.75"/><path class="cls-11" d="M580,1289.7s131.7,40.8,160.1,64.4,48.1,257.3,48.1,257.3-3.4,2-10.3,1.9c-6.5-.1-20-5.7-20-5.7s-57.9-111-59.6-137.3,2.6-49-8.8-51.1-156.1-2.9-172.7-43.7,6.2-76,6.2-76Z" transform="translate(-248.7 -303.35)"/><path class="cls-9" d="M790.8,1658.7c-9,0-27.7,2.3-35.8-7.6s-25.9-14.9-28.1-18c-1.2-1.7.4-9.3,2.1-16h0c4.4-6.1-2.7-14.3-2.7-14.3l23.7,1.6s11.3,15,19.6,27c3.2,4.6,12.7,11.4,18.4,13.5,7.4,2.7,14.8,4.3,17.5,6.9C810.2,1656.4,799.8,1658.7,790.8,1658.7Z" transform="translate(-248.7 -303.35)"/><path class="cls-12" d="M790.8,1658.7c-9,0-27.7,2.3-35.8-7.6s-25.9-14.9-28.1-18c-1.2-1.7-1.3-8.7,2.1-16h0s14.9,6.1,23.3,17.8,30.8,16.8,35.6,10l.1-.1c7.4,2.7,14.8,4.3,17.5,6.9C810.2,1656.4,799.8,1658.7,790.8,1658.7Z" transform="translate(-248.7 -303.35)"/><polygon class="cls-12" points="478.1 1329.75 487.2 1349.05 493.2 1349.75 492.3 1332.45 478.1 1329.75"/><path class="cls-13" d="M545.5,1302.1s135.7,28.5,164,52,48.1,257.3,48.1,257.3-3.4,2-10.3,1.9c-6.4-.1-20-5.7-20-5.7s-57.9-111-59.6-137.3,2.6-49-8.8-51.1-156.1-2.9-172.7-43.7,6.2-76,6.2-76Z" transform="translate(-248.7 -303.35)"/><path class="cls-9" d="M596.5,1083.2c.2.1-15.8,8.4-27.8,5.1-11.3-3.1-18.7-17.7-18.5-17.8,4.8-1,6.2-7.5,6.1-35.8l2.2.4,36.3,7.2s-.8,11.4-.8,22.2C593.9,1073.7,594.4,1082.2,596.5,1083.2Z" transform="translate(-248.7 -303.35)"/><path class="cls-14" d="M594.8,1042.4s-.8,11.4-.8,22.2c-20.3-.6-31.1-19.1-35.5-29.4Z" transform="translate(-248.7 -303.35)"/><path class="cls-9" d="M601.6,1052.6s-48.1.8-48.2-29.2-6.3-50.1,24.5-51.8,36.7,9.7,39.2,19.7S614.1,1051.6,601.6,1052.6Z" transform="translate(-248.7 -303.35)"/><path class="cls-15" d="M489.3,1212.7c-4.7-19.9,11.4-58.5,28.3-90.5,15.3-29,31.2-52.5,32.6-51.7,40.3,23.9,44,4,44,4h0s36.6,4.9,47,22.7c12.9,22.2,26.8,84.1,40.6,95.8-2.1,6.5-1.2,10,1,18,.5,1.7,1,3.4,1.6,4.9a93.06,93.06,0,0,0,6.9,14.2c-7,4.3-20.6,12.4-30.6,6.6-15.2-8.9-27.1-36-33.8-46.8l-.1-.1c-14.5,82.3,5.2,101-4.8,109.7-10.6,9.2-25.7-4.4-58.8,10-21.8,9.4-52,23.1-72.3,25.5-10.7,1.3-18.6-.6-21.2-7.8C462.2,1306.2,498.4,1250.6,489.3,1212.7Z" transform="translate(-248.7 -303.35)"/><path class="cls-15" d="M590.9,1034.4s.9,3.8,10.4,3.2c0,0,8-.5,7.7-4.7C608.9,1033,601.2,1030,590.9,1034.4Z" transform="translate(-248.7 -303.35)"/><path class="cls-15" d="M462.9,1241.9c10.8-15.2,22-23.2,29.4-27.2-1.7-4.4,45.4-62.1,45.4-71s12.6-73.2,12.6-73.2-39.2,2.4-52.8,21.4C480.4,1115.6,445.1,1206.7,462.9,1241.9Z" transform="translate(-248.7 -303.35)"/><path class="cls-9" d="M492.3,1214.7l78.4,20.4-7.4,13.2s-95.4-.7-100.4-6.5S492.3,1214.7,492.3,1214.7Z" transform="translate(-248.7 -303.35)"/><path class="cls-11" d="M627,1189.9c6.7,10.8,18.6,37.9,33.8,46.8,10,5.8,23.5-2.3,30.6-6.6a104,104,0,0,1-7-14.2c-5.6,1.3-12.4,2.9-16.8,4.2C659,1222.8,627,1189.9,627,1189.9Z" transform="translate(-248.7 -303.35)"/><polygon class="cls-12" points="370.3 875.85 328.3 968.85 427.8 978.25 466.9 883.75 370.3 875.85"/><path class="cls-16" d="M715.6,1187.1l46.4-29.4-46.4,101.5-39.1,22.5Z" transform="translate(-248.7 -303.35)"/><path class="cls-9" d="M570.6,1235.2s14.5-6.4,18.2-9.7c2.4-2.1,2.2.9,2,1.7a11.86,11.86,0,0,1-5.3,7.8C579.4,1239,570.6,1235.2,570.6,1235.2Z" transform="translate(-248.7 -303.35)"/><path class="cls-4" d="M596.7,960.8s-15.3,43-37.4,50-29.2-1.8-29.2-1.8,16.4-14.6,18.7-38.5C548.8,970.4,584.7,942.9,596.7,960.8Z" transform="translate(-248.7 -303.35)"/><path class="cls-4" d="M593.2,964.2s11.4,8.1,14.5,16.4,5.3,25.6,10.3,24.8c0,0,9.5-27-3.6-41.3C600.4,948.8,593.2,964.2,593.2,964.2Z" transform="translate(-248.7 -303.35)"/><path class="cls-4" d="M595.3,965.4s-8.2,41.3-35.7,55.9c0,0,26.8-26.6,27.8-53.6S595.3,965.4,595.3,965.4Z" transform="translate(-248.7 -303.35)"/><path class="cls-4" d="M512.5,1047.9c8.6,5.8,28.5,4,28.5,4a14.23,14.23,0,0,1-2.5-3.4c11.8,5.8,34.9-5.5,34.9-5.5-20.5.1-20.5-29.5-14.1-32.2-.9-22.1.8-50.2,1.8-62.9a7.9,7.9,0,0,0-1.4.1C503.6,939.7,503.9,1042.1,512.5,1047.9Z" transform="translate(-248.7 -303.35)"/><path class="cls-9" d="M570.6,1235.2s25.5-4.9,31.1-3.6,18.2,6.6,19.1,7.8-3.7,1.8-6.9.5c-4.2-1.7-11.2-1-11.2-1s13.5,4.4,16.8,6.3a.62.62,0,0,1,.2.7c0,.1-.1.1-.2.2-.9.6-3.1.8-6.1,0a121.64,121.64,0,0,0-12.1-1.8l15.4,5a.55.55,0,0,1,.3.5c-.1.7-1.4,1.4-5.1,1.2-2.8-.2-12.3-2.6-12.3-2.6l8.1,5.4s-2.2,1.3-6.4-.6c-2.9-1.3-11.6-4.5-13.7-4.2s-12.9,3.2-17.6,1.7l-6.7-2.2Z" transform="translate(-248.7 -303.35)"/><path class="cls-5" d="M541.6,1652.4a4.61,4.61,0,0,0,4.5-3.7l22.3-126.4,32.1-181.8,9-50.8-22.8-.7-4,29.5-27.8,207.3-16.5,122.9a3.26,3.26,0,0,0,2.8,3.6C541.3,1652.4,541.5,1652.5,541.6,1652.4Z" transform="translate(-248.7 -303.35)"/><path class="cls-17" d="M582.7,1318.6c14.8,6.5,17.8,22,17.8,22l9-50.8-22.8-.7Z" transform="translate(-248.7 -303.35)"/><path class="cls-5" d="M1109.8,1652.4a4.61,4.61,0,0,1-4.5-3.7L1083,1522.3l-32.1-181.8-9-50.8,22.8-.7,4,29.5,27.8,207.3,16.5,122.9a3.19,3.19,0,0,1-2.8,3.6C1110.1,1652.4,1110,1652.5,1109.8,1652.4Z" transform="translate(-248.7 -303.35)"/><path class="cls-17" d="M1068.7,1318.6c-14.8,6.5-17.8,22-17.8,22l-9-50.8,22.8-.7Z" transform="translate(-248.7 -303.35)"/><path class="cls-5" d="M1115,1309.7H522.8a10.29,10.29,0,0,1-10.3-10.3v-4.7a10.29,10.29,0,0,1,10.3-10.3H1115a10.29,10.29,0,0,1,10.3,10.3v4.7A10.29,10.29,0,0,1,1115,1309.7Z" transform="translate(-248.7 -303.35)"/><path class="cls-18" d="M1749.6,1335.5H1637.9a5.59,5.59,0,0,1-5.6-5.6h0a5.59,5.59,0,0,1,5.6-5.6h111.7a5.59,5.59,0,0,1,5.6,5.6h0A5.59,5.59,0,0,1,1749.6,1335.5Z" transform="translate(-248.7 -303.35)"/><path class="cls-18" d="M1749.6,1357.5H1637.9a5.59,5.59,0,0,1-5.6-5.6h0a5.59,5.59,0,0,1,5.6-5.6h111.7a5.59,5.59,0,0,1,5.6,5.6h0A5.59,5.59,0,0,1,1749.6,1357.5Z" transform="translate(-248.7 -303.35)"/><path class="cls-19" d="M1773.1,407.8V1617.3a34.65,34.65,0,0,1-33.6,34.5H1133.8a34.7,34.7,0,0,1-34.5-34.5V407.8a34.7,34.7,0,0,1,34.5-34.5h604.8A34.44,34.44,0,0,1,1773.1,407.8Z" transform="translate(-248.7 -303.35)"/><path class="cls-20" d="M1808.8,407.8V1617.3a34.7,34.7,0,0,1-34.5,34.5H1169.5a34.7,34.7,0,0,1-34.5-34.5V407.8a34.63,34.63,0,0,1,34.5-34.5h604.8A34.57,34.57,0,0,1,1808.8,407.8Z" transform="translate(-248.7 -303.35)"/><path class="cls-21" d="M1570.6,421.7H1395.4a6.81,6.81,0,0,1-6.8-6.8h0a6.81,6.81,0,0,1,6.8-6.8h175.2a6.81,6.81,0,0,1,6.8,6.8h0A6.81,6.81,0,0,1,1570.6,421.7Z" transform="translate(-248.7 -303.35)"/><path class="cls-21" d="M1364.3,421.7h0a6.81,6.81,0,0,1-6.8-6.8h0a6.81,6.81,0,0,1,6.8-6.8h0a6.81,6.81,0,0,1,6.8,6.8h0A6.81,6.81,0,0,1,1364.3,421.7Z" transform="translate(-248.7 -303.35)"/><path class="cls-22" d="M1524.2,1581.1a43.8,43.8,0,1,1,0-.2Z" transform="translate(-248.7 -303.35)"/><rect class="cls-6" x="926.6" y="148.65" width="597.5" height="1063.5"/><path class="cls-23" d="M1511.4,1612.1a44,44,0,0,1-62.7-61.7,49.13,49.13,0,0,1,7.9-6.4C1461,1562.7,1473.7,1594,1511.4,1612.1Z" transform="translate(-248.7 -303.35)"/><path class="cls-24" d="M1773.1,538.2V956.6H1204c-6.4,0-11.6-5.5-11.6-12.3V550.5c0-6.8,5.2-12.3,11.6-12.3Z" transform="translate(-248.7 -303.35)"/><path class="cls-24" d="M1610.8,1040.7v393.7c0,6.8-4.7,12.3-10.5,12.3h-425V1028.3h425C1606.1,1028.3,1610.8,1033.9,1610.8,1040.7Z" transform="translate(-248.7 -303.35)"/><path class="cls-25" d="M2034.6,515.7V909.4a12.29,12.29,0,0,1-12.3,12.3H1224.9a12.29,12.29,0,0,1-12.3-12.3V515.7a12.29,12.29,0,0,1,12.3-12.3h797.4A12.29,12.29,0,0,1,2034.6,515.7Z" transform="translate(-248.7 -303.35)"/><path class="cls-26" d="M2034.6,515.7V909.4c0,6.8-6.4,12.3-14.3,12.3H1623.6V503.4h396.7C2028.2,503.4,2034.6,508.9,2034.6,515.7Z" transform="translate(-248.7 -303.35)"/><path class="cls-18" d="M1858.8,557.8H1709.5a4.48,4.48,0,0,1-4.5-4.5h0a4.48,4.48,0,0,1,4.5-4.5h149.3a4.48,4.48,0,0,1,4.5,4.5h0A4.61,4.61,0,0,1,1858.8,557.8Z" transform="translate(-248.7 -303.35)"/><path class="cls-18" d="M1858.8,575H1709.5a4.48,4.48,0,0,1-4.5-4.5h0a4.48,4.48,0,0,1,4.5-4.5h149.3a4.48,4.48,0,0,1,4.5,4.5h0A4.61,4.61,0,0,1,1858.8,575Z" transform="translate(-248.7 -303.35)"/><path class="cls-18" d="M1678.7,547.9h3.7a5.34,5.34,0,0,1,5.3,5.3v.2a5.34,5.34,0,0,1-5.3,5.3h-3.7a5.34,5.34,0,0,1-5.3-5.3v-.2A5.21,5.21,0,0,1,1678.7,547.9Z" transform="translate(-248.7 -303.35)"/><path class="cls-18" d="M1858.8,621.2H1709.5a4.48,4.48,0,0,1-4.5-4.5h0a4.48,4.48,0,0,1,4.5-4.5h149.3a4.48,4.48,0,0,1,4.5,4.5h0A4.61,4.61,0,0,1,1858.8,621.2Z" transform="translate(-248.7 -303.35)"/><path class="cls-18" d="M1858.8,638.4H1709.5a4.46,4.46,0,0,1-4.5-4.4h0a4.48,4.48,0,0,1,4.5-4.5h149.3a4.48,4.48,0,0,1,4.5,4.5h0A4.52,4.52,0,0,1,1858.8,638.4Z" transform="translate(-248.7 -303.35)"/><path class="cls-18" d="M1678.7,611.3h3.7a5.34,5.34,0,0,1,5.3,5.3v.2a5.34,5.34,0,0,1-5.3,5.3h-3.7a5.34,5.34,0,0,1-5.3-5.3v-.2A5.21,5.21,0,0,1,1678.7,611.3Z" transform="translate(-248.7 -303.35)"/><path class="cls-18" d="M1858.8,683.9H1709.5a4.48,4.48,0,0,1-4.5-4.5h0a4.48,4.48,0,0,1,4.5-4.5h149.3a4.48,4.48,0,0,1,4.5,4.5h0A4.61,4.61,0,0,1,1858.8,683.9Z" transform="translate(-248.7 -303.35)"/><path class="cls-18" d="M1858.8,701.1H1709.5a4.48,4.48,0,0,1-4.5-4.5h0a4.48,4.48,0,0,1,4.5-4.5h149.3a4.48,4.48,0,0,1,4.5,4.5h0A4.61,4.61,0,0,1,1858.8,701.1Z" transform="translate(-248.7 -303.35)"/><path class="cls-18" d="M1678.7,674h3.7a5.34,5.34,0,0,1,5.3,5.3v.2a5.34,5.34,0,0,1-5.3,5.3h-3.7a5.34,5.34,0,0,1-5.3-5.3v-.2A5.21,5.21,0,0,1,1678.7,674Z" transform="translate(-248.7 -303.35)"/><path class="cls-25" d="M1640.9,999.3V1393a12.29,12.29,0,0,1-12.3,12.3H831.2a12.29,12.29,0,0,1-12.3-12.3V999.3A12.36,12.36,0,0,1,831.2,987h797.4A12.42,12.42,0,0,1,1640.9,999.3Z" transform="translate(-248.7 -303.35)"/><path class="cls-26" d="M1640.9,999.3V1393a12.29,12.29,0,0,1-12.3,12.3H1274V987h354.6A12.42,12.42,0,0,1,1640.9,999.3Z" transform="translate(-248.7 -303.35)"/><path class="cls-27" d="M925.8,1055.2a44.2,44.2,0,1,0,44.2,44.2h0a44.21,44.21,0,0,0-44.2-44.2Zm30.7,45.7H925.9a1.37,1.37,0,0,1-1.4-1.4h0v-32.9a1.4,1.4,0,0,1,2.8,0v31.5h29.2a1.4,1.4,0,0,1,0,2.8Z" transform="translate(-248.7 -303.35)"/><path class="cls-27" d="M921.4,1226.4a39.78,39.78,0,0,0-39.8,39.8h0c0,22,39.8,70.8,39.8,70.8s39.8-48.9,39.8-70.8a39.78,39.78,0,0,0-39.8-39.8Zm0,58a18.6,18.6,0,1,1,18.6-18.6h0A18.56,18.56,0,0,1,921.4,1284.4Z" transform="translate(-248.7 -303.35)"/><path class="cls-18" d="M1144.9,1250.9H1000a6.7,6.7,0,0,1-6.7-6.7h0a6.7,6.7,0,0,1,6.7-6.7h144.9a6.7,6.7,0,0,1,6.7,6.7h0A6.7,6.7,0,0,1,1144.9,1250.9Z" transform="translate(-248.7 -303.35)"/><path class="cls-18" d="M999.2,1263.1h108.1a5.8,5.8,0,0,1,5.8,5.8v1.7a5.8,5.8,0,0,1-5.8,5.8H999.2a5.8,5.8,0,0,1-5.8-5.8v-1.7A5.8,5.8,0,0,1,999.2,1263.1Z" transform="translate(-248.7 -303.35)"/><path class="cls-18" d="M1144.9,1093.4H1000a6.7,6.7,0,0,1-6.7-6.7h0a6.7,6.7,0,0,1,6.7-6.7h144.9a6.7,6.7,0,0,1,6.7,6.7h0A6.7,6.7,0,0,1,1144.9,1093.4Z" transform="translate(-248.7 -303.35)"/><path class="cls-18" d="M999.2,1105.6h108.1a5.8,5.8,0,0,1,5.8,5.8v1.7a5.8,5.8,0,0,1-5.8,5.8H999.2a5.8,5.8,0,0,1-5.8-5.8v-1.7A5.8,5.8,0,0,1,999.2,1105.6Z" transform="translate(-248.7 -303.35)"/><polygon class="cls-28" points="1392.2 872.15 1392.2 804.35 1247.7 744.85 1025.2 790.55 1025.2 882.15 1151.5 933.65 1151.6 933.75 1392.2 872.15"/><polygon class="cls-29" points="1151.2 933.75 1151.2 974.15 1025.2 919.45 1025.2 882.25 1151.2 933.75"/><polygon class="cls-27" points="1392.2 872.15 1151.5 933.65 1151.2 933.75 1151.2 974.15 1392.2 908.35 1392.2 872.15"/><path class="cls-9" d="M1947.8,656.6c-.8-.5-2-1.2-3.3-1.9h0l-21.6-17.6s-2.7,1.6,0,4.5a16.68,16.68,0,0,0,1.4,1.5l-8.2-6.4a3.49,3.49,0,0,0-.5,3.8c.7,1.7,8.4,8.2,12.7,11.9-2.6-1.3-6.3-4-11.8-9.6-3.4-3.5-2.3,1.8-1.8,4,.9,4,11.7,17.6,15.4,23.7s5.7,12.1,3,9.5-17-11.5-18.5-9.5,7.2,9.5,11.3,15.5,8.7,16.2,23.4,18.5,17.2-5.2,17.2-5.2S1954.6,660.7,1947.8,656.6Z" transform="translate(-248.7 -303.35)"/><path class="cls-9" d="M2402.1,1023.8s-3.6,34.8-7.5,41.4-22.2,25.7-27.8,31.8c-.4.4-4-2.8-1.3-7.4,11.1-18.7,8-14.2,4.2-26.5-1.9-6.1-3.1,11.4-6.2,11.8s-2-18.4-2.1-24.2,15.8-8.4,17.6-29.1C2380.1,1008.3,2402.1,1023.8,2402.1,1023.8Z" transform="translate(-248.7 -303.35)"/><path class="cls-4" d="M2292.9,666.6S2264,808.7,2104.6,855.1c-49.7,14.5-162.7-149.3-162.7-149.3s4-15.1,28.9-11.6c0,0,110,72.8,123.9,80.8,12.3,7,93.1-90.2,130-105.9S2292.9,666.6,2292.9,666.6Z" transform="translate(-248.7 -303.35)"/><path class="cls-4" d="M2483.1,1559.9s19.8,18,15.9,30.8-21.7,21.4-24.1,37-12.1,24.2-20.7,24.2h-41.4s-6.4-11,9-14.3,21.2-21.7,20.3-38.8,1.4-39.9,1.4-39.9l32.8-7.6Z" transform="translate(-248.7 -303.35)"/><path class="cls-4" d="M2240.6,1606.6s3.6,41.1-5.1,45.3l-111.1-.2s0-12.8,17.8-15.7,49.2-13.3,54.5-36.6S2240.6,1606.6,2240.6,1606.6Z" transform="translate(-248.7 -303.35)"/><path class="cls-27" d="M2146.8,1026.7s5.9,72,12.7,158.5c9.4,117.5,20.6,261.8,21.7,289.2,1.9,47.5,9.6,123.4,9.6,123.4s18.3,18,55,10.4c0,0,32.7-108.4,42-223.1.1-1.9.3-3.8.4-5.7,8.7-116.8,22.2-362.7,22.2-362.7Z" transform="translate(-248.7 -303.35)"/><path class="cls-30" d="M2146.8,1026.7s5.9,72,12.7,158.5l128.3,199.9c.1-1.9.3-3.8.4-5.7,8.7-116.8,22.2-362.7,22.2-362.7Z" transform="translate(-248.7 -303.35)"/><path class="cls-27" d="M2173.6,1035.2s105.6,260.6,175,383.1,91.1,156.7,91.1,156.7,39.8-15.7,43.4-26.3c0,0-26.6-236.4-73-294.1-26.3-32.6-57.1-130.3-58.6-164.5s-9.4-101.8-9.4-101.8Z" transform="translate(-248.7 -303.35)"/><path class="cls-9" d="M2312.5,633.6s-71.4,34.5-112.6,21.7a95.71,95.71,0,0,1,27.9-22.3c-1.4-8.3-2.5-15.4-3.2-21.5a179.5,179.5,0,0,1-1.7-22l27.6-21.7,26.1-20.8C2274.5,605.3,2312.5,633.6,2312.5,633.6Z" transform="translate(-248.7 -303.35)"/><path class="cls-31" d="M2350.1,1001.6c.2,4.4-9.2,9.4-13.3,11.2-30.6,13.4-59.1,22.8-91.4,25.9-38.2,3.9-83.3-4.7-98.8-4.4a6.31,6.31,0,0,1-4.3-1.7c-1.1-.8-1.9-46.8-1.1-104.7,0-2.3,0-4.7.2-7v-.8c.3-22.6,1.1-46.3,2.2-70,2.2-52.1,6.3-102.3,13.3-130.1,8.4-32.8,27.4-54.4,44.7-70.2l14.2-12.5c14.2,2.8,29.3,2,44.4-5.3,16.5-8,34.2-16.5,37.1-14.3,21.5,15.8,36.1,51.2,43.9,96.4,0,.2.1.4.1.7a504.93,504.93,0,0,1,6.4,85.1c0,11.2-.3,22.8-1,34.2-3.2,51.6-1,97.5,1,129.3q.6,9.45,1.2,17.1C2349.5,989.5,2350,996.6,2350.1,1001.6Z" transform="translate(-248.7 -303.35)"/><path class="cls-4" d="M2347.7,963.4c-118.4-136.7-45-236.1-45-236.1l38.5-12.5a504.93,504.93,0,0,1,6.4,85.1c0,11.2-.3,22.8-1,34.2C2343.5,885.6,2345.6,931.5,2347.7,963.4Z" transform="translate(-248.7 -303.35)"/><path class="cls-32" d="M2277,569.3s-18.1,32.9-52.4,42.1a179.5,179.5,0,0,1-1.7-22l27.6-21.7Z" transform="translate(-248.7 -303.35)"/><path class="cls-9" d="M2210.3,588.5s68.1,11.2,74.5-30.7,19.5-68.7-23.7-77.6-54.1,5.8-59.7,19.3S2192.7,584.5,2210.3,588.5Z" transform="translate(-248.7 -303.35)"/><path class="cls-33" d="M2309.6,475.2c.6-.7,2-1.3,5.2-1.5a13.44,13.44,0,0,0-5.9-1.7c-.7-4.4-3-12.2-10.6-14.1a9.56,9.56,0,0,1,4.6,6.9c-8.8-9-27.7-15.6-79.9-11.5-68.8,5.4-46.1,49.5-37.2,54.8s31.3-9.1,47.9-7.8,19.8,25.3,25.4,28.6,3.4-2.5,11-6,8.4,9.2,6.1,17.4,8.3,19,8.3,19l10.6-11.4c10.6-11.4,20.6-59.7,15.7-70Z" transform="translate(-248.7 -303.35)"/><path class="cls-31" d="M2297.2,617.4s43.1,20.4,63.8,51.8c32.1,48.7,69.2,226.1,69.9,242.6s-27.1,132.4-27.1,132.4-28.2-1.9-35.5-16.1c0,0,5.6-119.2,2.1-126.9s-117.6-159.9-104.8-192.4S2297.2,617.4,2297.2,617.4Z" transform="translate(-248.7 -303.35)"/><path class="cls-9" d="M2394.6,1065.2l-20.4,34.1a3.29,3.29,0,0,1-2-3.5c.4-2.4,6.3-20.9,6.3-20.9Z" transform="translate(-248.7 -303.35)"/><path class="cls-9" d="M2374.1,1066.2s-14.7,16.8-11.4,20.6l10.6-8.2Z" transform="translate(-248.7 -303.35)"/><path class="cls-2" d="M1453.6,1107.8a18.93,18.93,0,0,0-11.9,2.2C1441.8,1110,1449.6,1112.7,1453.6,1107.8Z" transform="translate(-248.7 -303.35)"/><path class="cls-34" d="M1443.8,1085.6c-48,3.5-91.6,6.3-122.1,16.4-28.1,9.3-45.3,21.8-45.3,35.5,0,15.2,18.7,31.6,55.2,38.5,30.6,5.8,78.9,17.7,112.3,13.4,41.9-5.4,79.1-4.6,108.3-12.3l-13.5-5-94.6-34.6,152.3,4.2,14.3.4a23.21,23.21,0,0,0,.7-4.6c0-14.7-19.7-28-51.4-37.4C1529.7,1091.1,1488.7,1082.4,1443.8,1085.6Z" transform="translate(-248.7 -303.35)"/><path class="cls-35" d="M1596.3,1141.7l-152.3-4.2,94.6,34.6c-9.4,2.1-19.7,3.9-30.6,5.4-19.5,2.6-42,.8-64,4-36.4,5.3-70-6.9-97-10-29-3.3-59.4-20.7-56.1-34,3.4-13.8,23.1-29.9,58.3-34.6,26.5-3.5,61.4-11.7,97.2-11.7,29,0,53.4,7.2,76.8,8.7,44.2,2.7,73.7,21.7,73.7,37.6A15.23,15.23,0,0,1,1596.3,1141.7Z" transform="translate(-248.7 -303.35)"/><path class="cls-12" d="M1363.6,1132.7c0,1.5-3.2,2.7-7.2,2.7s-7.2-1.2-7.2-2.7,3.2-2.7,7.2-2.7S1363.6,1131.2,1363.6,1132.7Z" transform="translate(-248.7 -303.35)"/><path class="cls-12" d="M1407.1,1119.5c0,1.5-3.2,2.7-7.2,2.7s-7.2-1.2-7.2-2.7,3.2-2.7,7.2-2.7S1407.1,1118,1407.1,1119.5Z" transform="translate(-248.7 -303.35)"/><path class="cls-12" d="M1380.2,1112.3c0,1.2-2.7,2.3-5.9,2.3s-5.9-1-5.9-2.3,2.6-2.3,5.9-2.3S1380.2,1111,1380.2,1112.3Z" transform="translate(-248.7 -303.35)"/><path class="cls-12" d="M1433.6,1106.7c0,1.4-3,2.5-6.6,2.5s-6.6-1.1-6.6-2.5,2.9-2.5,6.6-2.5S1433.6,1105.3,1433.6,1106.7Z" transform="translate(-248.7 -303.35)"/><ellipse class="cls-12" cx="1174.5" cy="829.35" rx="10.4" ry="4"/><path class="cls-12" d="M1456.1,1118.2c0,1.5-3.2,2.7-7.2,2.7s-7.2-1.2-7.2-2.7,3.2-2.7,7.2-2.7S1456.1,1116.7,1456.1,1118.2Z" transform="translate(-248.7 -303.35)"/><path class="cls-12" d="M1489.2,1119.6c0,.8-1.6,1.4-3.6,1.4s-3.6-.6-3.6-1.4,1.6-1.4,3.6-1.4S1489.2,1118.8,1489.2,1119.6Z" transform="translate(-248.7 -303.35)"/><ellipse class="cls-12" cx="1221.9" cy="804.45" rx="3.6" ry="1.4"/><path class="cls-12" d="M1433.6,1152c0,.8-1.6,1.4-3.6,1.4s-3.6-.6-3.6-1.4,1.6-1.4,3.6-1.4S1433.6,1151.2,1433.6,1152Z" transform="translate(-248.7 -303.35)"/><path class="cls-12" d="M1458.1,1158.2c0,.8-1.6,1.4-3.6,1.4s-3.6-.6-3.6-1.4,1.6-1.4,3.6-1.4S1458.1,1157.4,1458.1,1158.2Z" transform="translate(-248.7 -303.35)"/><ellipse class="cls-12" cx="1147.1" cy="844.05" rx="8.1" ry="3.1"/><path class="cls-2" d="M1357.4,1148.2a16,16,0,0,0-10.5,1.4C1347,1149.6,1353.7,1152.3,1357.4,1148.2Z" transform="translate(-248.7 -303.35)"/><path class="cls-2" d="M1398.3,1128.7a22.44,22.44,0,0,0-14.2,1.8S1393.2,1134.2,1398.3,1128.7Z" transform="translate(-248.7 -303.35)"/><path class="cls-2" d="M1475.7,1118.2a21.75,21.75,0,0,0-13.3,5.3S1472.2,1124.8,1475.7,1118.2Z" transform="translate(-248.7 -303.35)"/><path class="cls-2" d="M1510.1,1122.2a22,22,0,0,0-14-2.6S1503.6,1125.9,1510.1,1122.2Z" transform="translate(-248.7 -303.35)"/><path class="cls-2" d="M1455,1133.4a18.81,18.81,0,0,0-10-6.8S1448.7,1134,1455,1133.4Z" transform="translate(-248.7 -303.35)"/><path class="cls-2" d="M1442.8,1140.8a18.93,18.93,0,0,0-11.5,3.6S1439.4,1146.1,1442.8,1140.8Z" transform="translate(-248.7 -303.35)"/><path class="cls-2" d="M1448.7,1164a18.58,18.58,0,0,0-11.7-2.8C1436.9,1161.2,1443,1166.8,1448.7,1164Z" transform="translate(-248.7 -303.35)"/><path class="cls-2" d="M1457.8,1148.4a18.41,18.41,0,0,0-11.4,4S1454.6,1153.9,1457.8,1148.4Z" transform="translate(-248.7 -303.35)"/><path class="cls-2" d="M1429.2,1119.7a18.75,18.75,0,0,0-11.9,1.8C1417.2,1121.5,1425,1124.5,1429.2,1119.7Z" transform="translate(-248.7 -303.35)"/><path class="cls-2" d="M1413.5,1112.9a18.73,18.73,0,0,0-11.3-4.2C1402.2,1108.8,1407.6,1115.1,1413.5,1112.9Z" transform="translate(-248.7 -303.35)"/><path class="cls-36" d="M1367.1,1151.6h0c-7,1.8-10.6,5.4-7.8,8h0c2,2,6.6,1.6,11.7.5l2.6,2.5a2.68,2.68,0,0,0,2.3.2l5-1.3c.9-.2,1.4-.7,1-1.1l-2.6-2.5c4.7-1.4,7.6-2.8,5.5-4.9h0C1382.2,1150.5,1374.2,1149.8,1367.1,1151.6Z" transform="translate(-248.7 -303.35)"/><path class="cls-36" d="M1500.7,1105.7h0c5.7,1.4,8.6,4.4,6.4,6.5h0c-1.7,1.6-5.4,1.3-9.5.4l-2.1,2.1a2.54,2.54,0,0,1-1.9.2l-4.1-1c-.8-.2-1.1-.6-.8-.9l2.1-2c-3.8-1.1-6.2-2.3-4.5-4h0C1488.5,1104.8,1495,1104.2,1500.7,1105.7Z" transform="translate(-248.7 -303.35)"/><path class="cls-36" d="M1418.9,1140.5h0c5.7,1.4,8.6,4.4,6.4,6.5h0c-1.7,1.6-5.4,1.3-9.5.4l-2.1,2a2.54,2.54,0,0,1-1.9.2l-4.1-1c-.8-.2-1.1-.6-.8-.9l2.1-2c-3.8-1.1-6.2-2.3-4.5-4h0C1406.6,1139.6,1413.2,1139,1418.9,1140.5Z" transform="translate(-248.7 -303.35)"/><path class="cls-36" d="M1370.4,1118.2h0c-5.7,1.5-8.6,4.4-6.4,6.6h0c1.7,1.6,5.4,1.3,9.5.4l2.1,2a2.54,2.54,0,0,0,1.9.2l4.1-1c.8-.2,1.1-.6.8-.9l-2.1-2c3.8-1.1,6.2-2.3,4.5-4h0C1382.6,1117.3,1376.1,1116.8,1370.4,1118.2Z" transform="translate(-248.7 -303.35)"/><path class="cls-34" d="M1620.1,1137.3l-131.5-3.6-18-5v4.5l102.6,37.5c31-8.1,51.8-19.9,55.5-33.2v-4.6Z" transform="translate(-248.7 -303.35)"/><path class="cls-37" d="M1628.8,1133c-3.8,13.3-24.6,25-55.5,33.2l-46.5-17-9.7-3.5h0l-46.4-17Z" transform="translate(-248.7 -303.35)"/><path class="cls-12" d="M1523.2,1136.8c0,1.5-3.2,2.7-7.2,2.7s-7.2-1.2-7.2-2.7,3.2-2.7,7.2-2.7S1523.2,1135.3,1523.2,1136.8Z" transform="translate(-248.7 -303.35)"/><path class="cls-12" d="M1530.8,1146.7c0,1.1-1.7,2-4.1,2.5l-9.7-3.5c1.1-1,3.6-1.7,6.6-1.7C1527.6,1144,1530.8,1145.2,1530.8,1146.7Z" transform="translate(-248.7 -303.35)"/><path class="cls-12" d="M1556.4,1147.3c0,.8-1.6,1.4-3.6,1.4s-3.6-.6-3.6-1.4,1.6-1.4,3.6-1.4S1556.4,1146.6,1556.4,1147.3Z" transform="translate(-248.7 -303.35)"/><ellipse class="cls-12" cx="1323.3" cy="836.15" rx="3.6" ry="1.4"/><path class="cls-12" d="M1539.2,1137.4c0,.8-1.6,1.4-3.6,1.4s-3.6-.6-3.6-1.4,1.6-1.4,3.6-1.4S1539.2,1136.7,1539.2,1137.4Z" transform="translate(-248.7 -303.35)"/><path class="cls-12" d="M1557.6,1135c0,1.2-2.6,2.2-5.9,2.2s-5.9-1-5.9-2.2,2.6-2.3,5.9-2.3S1557.6,1133.8,1557.6,1135Z" transform="translate(-248.7 -303.35)"/><path class="cls-12" d="M1551.7,1142.4c0,.8-1.8,1.5-4,1.5s-4-.7-4-1.5,1.8-1.5,4-1.5S1551.7,1141.5,1551.7,1142.4Z" transform="translate(-248.7 -303.35)"/><path class="cls-12" d="M1499.3,1134c0,.6-1.2,1-2.6,1s-2.6-.4-2.6-1,1.2-1,2.6-1S1499.3,1133.5,1499.3,1134Z" transform="translate(-248.7 -303.35)"/><path class="cls-2" d="M1529.7,1137.6a15,15,0,0,0-9.2,3.7S1527.2,1142.2,1529.7,1137.6Z" transform="translate(-248.7 -303.35)"/><path class="cls-2" d="M1589,1141.1a15.26,15.26,0,0,0-9.4-3.2S1584.1,1143,1589,1141.1Z" transform="translate(-248.7 -303.35)"/><path class="cls-2" d="M1542.2,1146.7a15.47,15.47,0,0,0-9.5-2.9S1537.4,1148.7,1542.2,1146.7Z" transform="translate(-248.7 -303.35)"/><path class="cls-2" d="M1573.2,1150a14.81,14.81,0,0,0-9.6,2.5S1570.2,1154.2,1573.2,1150Z" transform="translate(-248.7 -303.35)"/><path class="cls-2" d="M1494.4,1131a13.82,13.82,0,0,0-8.7,1.4S1491.4,1134.4,1494.4,1131Z" transform="translate(-248.7 -303.35)"/><path class="cls-34" d="M1305.7,546c-21.3,3.1-40.6,5.6-54.1,14.5-12.4,8.2-20.1,19.2-20.1,31.4,0,13.5,8.3,27.9,24.4,34,13.6,5.1,34.9,15.6,49.7,11.8,18.6-4.7,35-4.1,48-10.9l-6-4.4-41.9-30.6,67.5,3.7,6.3.3a27.28,27.28,0,0,0,.3-4.1c0-13-8.7-24.7-22.8-33.1C1343.8,550.9,1325.6,543.2,1305.7,546Z" transform="translate(-248.7 -303.35)"/><path class="cls-35" d="M1373.3,595.7l-67.5-3.7,41.9,30.6a81.32,81.32,0,0,1-13.6,4.8c-8.6,2.3-18.6.7-28.3,3.5-16.1,4.7-31-6.1-42.9-8.8-12.8-2.9-26.3-18.3-24.8-30.1,1.5-12.2,10.2-26.4,25.8-30.6,11.7-3.1,27.2-10.4,43-10.4,12.9,0,23.7,6.4,34,7.7,19.6,2.4,32.7,19.2,32.7,33.3C1373.5,593.2,1373.4,594.4,1373.3,595.7Z" transform="translate(-248.7 -303.35)"/><path class="cls-12" d="M1270.2,587.7c0,1.3-1.4,2.4-3.2,2.4s-3.2-1.1-3.2-2.4,1.4-2.4,3.2-2.4S1270.2,586.4,1270.2,587.7Z" transform="translate(-248.7 -303.35)"/><path class="cls-12" d="M1289.4,576c0,1.3-1.4,2.4-3.2,2.4s-3.2-1.1-3.2-2.4,1.4-2.4,3.2-2.4S1289.4,574.7,1289.4,576Z" transform="translate(-248.7 -303.35)"/><ellipse class="cls-12" cx="1026.2" cy="266.25" rx="2.6" ry="2"/><path class="cls-12" d="M1301.2,564.7c0,1.2-1.3,2.2-2.9,2.2s-2.9-1-2.9-2.2,1.3-2.2,2.9-2.2S1301.2,563.4,1301.2,564.7Z" transform="translate(-248.7 -303.35)"/><path class="cls-12" d="M1301.2,587.7c0,1.9-2.1,3.5-4.6,3.5s-4.6-1.6-4.6-3.5,2-3.5,4.6-3.5S1301.2,585.8,1301.2,587.7Z" transform="translate(-248.7 -303.35)"/><path class="cls-12" d="M1311.2,574.9c0,1.3-1.4,2.4-3.2,2.4s-3.2-1.1-3.2-2.4,1.4-2.4,3.2-2.4S1311.2,573.5,1311.2,574.9Z" transform="translate(-248.7 -303.35)"/><path class="cls-12" d="M1325.8,576.1a1.65,1.65,0,1,1-2-1.2c.1,0,.3-.1.4-.1A1.53,1.53,0,0,1,1325.8,576.1Z" transform="translate(-248.7 -303.35)"/><path class="cls-12" d="M1319.2,565.7a1.65,1.65,0,1,1-2-1.2c.1,0,.3-.1.4-.1A1.53,1.53,0,0,1,1319.2,565.7Z" transform="translate(-248.7 -303.35)"/><path class="cls-12" d="M1301.2,604.7a1.65,1.65,0,1,1-2-1.2c.1,0,.3-.1.4-.1A1.62,1.62,0,0,1,1301.2,604.7Z" transform="translate(-248.7 -303.35)"/><path class="cls-12" d="M1312,610.3a1.65,1.65,0,1,1-2-1.2c.1,0,.3-.1.4-.1A1.53,1.53,0,0,1,1312,610.3Z" transform="translate(-248.7 -303.35)"/><path class="cls-12" d="M1288,600.8c0,1.5-1.6,2.7-3.6,2.7s-3.6-1.2-3.6-2.7,1.6-2.7,3.6-2.7S1288,599.2,1288,600.8Z" transform="translate(-248.7 -303.35)"/><path class="cls-2" d="M1267.5,601.4a3.9,3.9,0,0,0-4.6,1.2A2.8,2.8,0,0,0,1267.5,601.4Z" transform="translate(-248.7 -303.35)"/><path class="cls-2" d="M1285.6,584.1s-3.2-1.6-6.3,1.6C1279.3,585.8,1283.3,589,1285.6,584.1Z" transform="translate(-248.7 -303.35)"/><path class="cls-2" d="M1319.8,574.9s-3.3,0-5.9,4.7C1314,579.6,1318.3,580.7,1319.8,574.9Z" transform="translate(-248.7 -303.35)"/><path class="cls-2" d="M1335.1,578.4s-2.8-3.5-6.2-2.3C1328.9,576.1,1332.2,581.7,1335.1,578.4Z" transform="translate(-248.7 -303.35)"/><path class="cls-2" d="M1310.7,588.3s-1.6-4.6-4.4-6C1306.3,582.3,1307.9,588.9,1310.7,588.3Z" transform="translate(-248.7 -303.35)"/><path class="cls-2" d="M1305.3,594.9s-2.8-.4-5.1,3.2C1300.2,598.1,1303.8,599.6,1305.3,594.9Z" transform="translate(-248.7 -303.35)"/><path class="cls-2" d="M1307.9,615.4s-2.3-3.2-5.2-2.5C1302.7,613,1305.4,617.9,1307.9,615.4Z" transform="translate(-248.7 -303.35)"/><path class="cls-2" d="M1311.9,601.7s-2.8-.2-5,3.5C1306.9,605.2,1310.5,606.5,1311.9,601.7Z" transform="translate(-248.7 -303.35)"/><path class="cls-2" d="M1299.2,576.2s-2.7-1.2-5.3,1.6C1294,577.8,1297.4,580.4,1299.2,576.2Z" transform="translate(-248.7 -303.35)"/><path class="cls-2" d="M1292.3,570.2s-2.1-3.7-5-3.7C1287.3,566.5,1289.7,572.1,1292.3,570.2Z" transform="translate(-248.7 -303.35)"/><path class="cls-36" d="M1271.8,604.5h0c-3.1,1.6-4.7,4.8-3.5,7.1h0c.9,1.8,2.9,1.4,5.2.4l1.2,2.2a.78.78,0,0,0,1,.2l2.2-1.1a.81.81,0,0,0,.5-.9l-1.2-2.2c2.1-1.2,3.4-2.5,2.4-4.3h0C1278.4,603.5,1274.9,602.9,1271.8,604.5Z" transform="translate(-248.7 -303.35)"/><path class="cls-36" d="M1330.9,563.8h0c2.5,1.3,3.8,3.9,2.8,5.8h0c-.7,1.4-2.4,1.1-4.2.3l-.9,1.8a.65.65,0,0,1-.8.2l-1.8-.9a.63.63,0,0,1-.4-.8l.9-1.8c-1.7-1-2.8-2-2-3.5h0C1325.5,563,1328.4,562.5,1330.9,563.8Z" transform="translate(-248.7 -303.35)"/><path class="cls-36" d="M1294.7,594.6h0c2.5,1.3,3.8,3.9,2.8,5.8h0c-.7,1.4-2.4,1.1-4.2.3l-.9,1.8a.65.65,0,0,1-.8.2l-1.8-.9a.63.63,0,0,1-.4-.8l.9-1.8c-1.7-1-2.8-2-2-3.5h0C1289.3,593.8,1292.1,593.3,1294.7,594.6Z" transform="translate(-248.7 -303.35)"/><path class="cls-36" d="M1273.2,574.9h0c-2.5,1.3-3.8,3.9-2.8,5.8h0c.7,1.4,2.4,1.1,4.2.3l.9,1.8a.65.65,0,0,0,.8.2l1.8-.9a.68.68,0,0,0,.4-.8l-.9-1.8c1.7-1,2.8-2,2-3.5h0C1278.6,574.1,1275.7,573.6,1273.2,574.9Z" transform="translate(-248.7 -303.35)"/><path class="cls-34" d="M1383.8,591.8l-58.2-3.2-8-4.4v4l45.4,33.2c13.7-7.2,22.9-17.6,24.6-29.3v-4Z" transform="translate(-248.7 -303.35)"/><path class="cls-37" d="M1387.7,588c-1.7,11.7-10.9,22.1-24.6,29.3l-20.6-15-4.3-3.1h0l-20.6-15Z" transform="translate(-248.7 -303.35)"/><path class="cls-12" d="M1340.9,591.3c0,1.3-1.4,2.4-3.2,2.4s-3.2-1.1-3.2-2.4,1.4-2.4,3.2-2.4S1340.9,590,1340.9,591.3Z" transform="translate(-248.7 -303.35)"/><path class="cls-12" d="M1344.2,600.1a2.58,2.58,0,0,1-1.8,2.2l-4.3-3.1a3.39,3.39,0,0,1,2.9-1.5C1342.8,597.7,1344.2,598.8,1344.2,600.1Z" transform="translate(-248.7 -303.35)"/><path class="cls-12" d="M1355.6,600.7a1.65,1.65,0,1,1-2-1.2c.1,0,.3-.1.4-.1A1.53,1.53,0,0,1,1355.6,600.7Z" transform="translate(-248.7 -303.35)"/><path class="cls-12" d="M1364.1,593.7a1.65,1.65,0,1,1-2-1.2c.1,0,.3-.1.4-.1A1.62,1.62,0,0,1,1364.1,593.7Z" transform="translate(-248.7 -303.35)"/><path class="cls-12" d="M1348,591.9a1.65,1.65,0,1,1-2-1.2c.1,0,.3-.1.4-.1A1.62,1.62,0,0,1,1348,591.9Z" transform="translate(-248.7 -303.35)"/><path class="cls-12" d="M1356.1,589.8c0,1.1-1.2,2-2.6,2s-2.6-.9-2.6-2,1.2-2,2.6-2S1356.1,588.7,1356.1,589.8Z" transform="translate(-248.7 -303.35)"/><path class="cls-12" d="M1353.5,596.3a1.81,1.81,0,1,1-2.2-1.3c.2,0,.3-.1.5-.1A1.56,1.56,0,0,1,1353.5,596.3Z" transform="translate(-248.7 -303.35)"/><path class="cls-12" d="M1330.3,588.9a1.2,1.2,0,1,1-1.5-.8h.3A.91.91,0,0,1,1330.3,588.9Z" transform="translate(-248.7 -303.35)"/><path class="cls-2" d="M1343.8,592.1s-2.3,0-4.1,3.2C1339.7,595.3,1342.7,596.1,1343.8,592.1Z" transform="translate(-248.7 -303.35)"/><path class="cls-2" d="M1370,595.1s-1.7-3-4.2-2.8C1365.9,592.3,1367.9,596.8,1370,595.1Z" transform="translate(-248.7 -303.35)"/><path class="cls-2" d="M1349.3,600.1s-1.8-2.8-4.2-2.5C1345.1,597.5,1347.2,601.9,1349.3,600.1Z" transform="translate(-248.7 -303.35)"/><path class="cls-2" d="M1363.1,603s-2.3-.6-4.2,2.2C1358.8,605.2,1361.7,606.7,1363.1,603Z" transform="translate(-248.7 -303.35)"/><path class="cls-2" d="M1328.1,586.2a3.28,3.28,0,0,0-3.8,1.2,2.4,2.4,0,0,0,3.4-.4A2,2,0,0,0,1328.1,586.2Z" transform="translate(-248.7 -303.35)"/><path class="cls-34" d="M1492.2,667.4c-21.3,3.1-40.6,5.6-54.1,14.5-12.4,8.2-20.1,19.2-20.1,31.4,0,13.5,8.3,27.9,24.4,34,13.6,5.1,34.9,15.6,49.7,11.8,18.6-4.7,35-4.1,48-10.9l-6-4.4-41.9-30.6,67.5,3.7,6.3.3a27.28,27.28,0,0,0,.3-4.1c0-13-8.7-24.7-22.8-33.1C1530.2,672.2,1512.1,664.5,1492.2,667.4Z" transform="translate(-248.7 -303.35)"/><path class="cls-35" d="M1559.7,717l-67.5-3.7,41.9,30.6a81.32,81.32,0,0,1-13.6,4.8c-8.6,2.3-18.6.7-28.3,3.5-16.1,4.7-31-6.1-42.9-8.8-12.8-2.9-26.3-18.3-24.8-30.1,1.5-12.2,10.2-26.4,25.8-30.6,11.7-3.1,27.2-10.4,43-10.4,12.9,0,23.7,6.4,34,7.7,19.6,2.4,32.7,19.2,32.7,33.3A23.08,23.08,0,0,1,1559.7,717Z" transform="translate(-248.7 -303.35)"/><path class="cls-12" d="M1456.7,709c0,1.3-1.4,2.4-3.2,2.4s-3.2-1.1-3.2-2.4,1.4-2.4,3.2-2.4S1456.7,707.7,1456.7,709Z" transform="translate(-248.7 -303.35)"/><path class="cls-12" d="M1475.9,697.4c0,1.3-1.4,2.4-3.2,2.4s-3.2-1.1-3.2-2.4,1.4-2.4,3.2-2.4S1475.9,696,1475.9,697.4Z" transform="translate(-248.7 -303.35)"/><path class="cls-12" d="M1464,691c0,1.1-1.2,2-2.6,2s-2.6-.9-2.6-2,1.2-2,2.6-2S1464,689.8,1464,691Z" transform="translate(-248.7 -303.35)"/><path class="cls-12" d="M1487.7,686c0,1.2-1.3,2.2-2.9,2.2s-2.9-1-2.9-2.2,1.3-2.2,2.9-2.2S1487.7,684.8,1487.7,686Z" transform="translate(-248.7 -303.35)"/><path class="cls-12" d="M1487.7,709c0,1.9-2.1,3.5-4.6,3.5s-4.6-1.6-4.6-3.5,2-3.5,4.6-3.5S1487.7,707.1,1487.7,709Z" transform="translate(-248.7 -303.35)"/><path class="cls-12" d="M1497.6,696.2c0,1.3-1.4,2.4-3.2,2.4s-3.2-1.1-3.2-2.4,1.4-2.4,3.2-2.4S1497.6,694.9,1497.6,696.2Z" transform="translate(-248.7 -303.35)"/><path class="cls-12" d="M1512.3,697.4a1.65,1.65,0,1,1-2-1.2c.1,0,.3-.1.4-.1A1.53,1.53,0,0,1,1512.3,697.4Z" transform="translate(-248.7 -303.35)"/><path class="cls-12" d="M1505.7,687a1.65,1.65,0,1,1-2-1.2c.1,0,.3-.1.4-.1A1.69,1.69,0,0,1,1505.7,687Z" transform="translate(-248.7 -303.35)"/><path class="cls-12" d="M1487.7,726.1a1.65,1.65,0,1,1-2-1.2c.1,0,.3-.1.4-.1A1.53,1.53,0,0,1,1487.7,726.1Z" transform="translate(-248.7 -303.35)"/><path class="cls-12" d="M1498.5,731.6a1.65,1.65,0,1,1-2-1.2c.1,0,.3-.1.4-.1A1.53,1.53,0,0,1,1498.5,731.6Z" transform="translate(-248.7 -303.35)"/><path class="cls-12" d="M1474.5,722.1c0,1.5-1.6,2.7-3.6,2.7s-3.6-1.2-3.6-2.7,1.6-2.7,3.6-2.7S1474.5,720.6,1474.5,722.1Z" transform="translate(-248.7 -303.35)"/><path class="cls-2" d="M1454,722.8a3.9,3.9,0,0,0-4.6,1.2A2.86,2.86,0,0,0,1454,722.8Z" transform="translate(-248.7 -303.35)"/><path class="cls-2" d="M1472,705.5s-3.2-1.6-6.3,1.6C1465.8,707.1,1469.8,710.3,1472,705.5Z" transform="translate(-248.7 -303.35)"/><path class="cls-2" d="M1506.3,696.2s-3.3,0-5.9,4.7C1500.4,700.9,1504.8,702.1,1506.3,696.2Z" transform="translate(-248.7 -303.35)"/><path class="cls-2" d="M1521.6,699.7s-2.8-3.5-6.2-2.3C1515.3,697.4,1518.7,703,1521.6,699.7Z" transform="translate(-248.7 -303.35)"/><path class="cls-2" d="M1497.2,709.7s-1.6-4.6-4.4-6C1492.8,703.6,1494.4,710.2,1497.2,709.7Z" transform="translate(-248.7 -303.35)"/><path class="cls-2" d="M1491.8,716.2s-2.8-.4-5.1,3.2C1486.7,719.4,1490.3,720.9,1491.8,716.2Z" transform="translate(-248.7 -303.35)"/><path class="cls-2" d="M1494.4,736.8s-2.3-3.2-5.2-2.5C1489.2,734.3,1491.9,739.3,1494.4,736.8Z" transform="translate(-248.7 -303.35)"/><path class="cls-2" d="M1498.4,723s-2.8-.2-5,3.5C1493.3,726.5,1497,727.8,1498.4,723Z" transform="translate(-248.7 -303.35)"/><path class="cls-2" d="M1485.7,697.6s-2.7-1.2-5.3,1.6C1480.4,699.2,1483.9,701.8,1485.7,697.6Z" transform="translate(-248.7 -303.35)"/><path class="cls-2" d="M1478.8,691.5s-2.1-3.7-5-3.7C1473.8,687.8,1476.2,693.4,1478.8,691.5Z" transform="translate(-248.7 -303.35)"/><path class="cls-36" d="M1458.2,725.8h0c-3.1,1.6-4.7,4.8-3.5,7.1h0c.9,1.8,2.9,1.4,5.2.4l1.2,2.2a.78.78,0,0,0,1,.2l2.2-1.1a.76.76,0,0,0,.5-.9l-1.2-2.2c2.1-1.2,3.4-2.5,2.4-4.3h0C1464.9,724.8,1461.3,724.2,1458.2,725.8Z" transform="translate(-248.7 -303.35)"/><path class="cls-36" d="M1517.4,685.1h0c2.5,1.3,3.8,3.9,2.8,5.8h0c-.7,1.4-2.4,1.1-4.2.3l-.9,1.8a.53.53,0,0,1-.8.1l-1.8-.9a.63.63,0,0,1-.4-.8l.9-1.8c-1.7-1-2.8-2-2-3.5h0C1512,684.3,1514.9,683.8,1517.4,685.1Z" transform="translate(-248.7 -303.35)"/><path class="cls-36" d="M1481.2,715.9h0c2.5,1.3,3.8,3.9,2.8,5.8h0c-.7,1.4-2.4,1.1-4.2.3l-.9,1.8a.53.53,0,0,1-.8.1l-1.8-.9a.63.63,0,0,1-.4-.8l.9-1.8c-1.7-1-2.8-2-2-3.5h0C1475.7,715.1,1478.6,714.6,1481.2,715.9Z" transform="translate(-248.7 -303.35)"/><path class="cls-36" d="M1459.7,696.2h0c-2.5,1.3-3.8,3.9-2.8,5.8h0c.7,1.4,2.4,1.1,4.2.3l.9,1.8a.53.53,0,0,0,.8.1l1.8-.9a.63.63,0,0,0,.4-.8l-.9-1.8c1.7-1,2.8-2,2-3.5h0C1465.1,695.4,1462.2,694.9,1459.7,696.2Z" transform="translate(-248.7 -303.35)"/><path class="cls-34" d="M1570.3,713.1l-58.3-3.2-8-4.4v4l45.4,33.2c13.7-7.2,22.9-17.6,24.6-29.3v-4Z" transform="translate(-248.7 -303.35)"/><path class="cls-37" d="M1574.1,709.3c-1.7,11.7-10.9,22.1-24.6,29.3l-20.6-15.1-4.3-3.1h0l-20.6-15Z" transform="translate(-248.7 -303.35)"/><path class="cls-12" d="M1527.4,712.6c0,1.3-1.4,2.4-3.2,2.4s-3.2-1.1-3.2-2.4,1.4-2.4,3.2-2.4S1527.4,711.3,1527.4,712.6Z" transform="translate(-248.7 -303.35)"/><path class="cls-12" d="M1530.7,721.5a2.58,2.58,0,0,1-1.8,2.2l-4.3-3.1a3.39,3.39,0,0,1,2.9-1.5C1529.3,719,1530.7,720.1,1530.7,721.5Z" transform="translate(-248.7 -303.35)"/><path class="cls-12" d="M1542.1,722a1.65,1.65,0,1,1-2-1.2c.1,0,.3-.1.4-.1A1.6,1.6,0,0,1,1542.1,722Z" transform="translate(-248.7 -303.35)"/><path class="cls-12" d="M1550.6,715.1a1.65,1.65,0,1,1-2-1.2c.1,0,.3-.1.4-.1A1.53,1.53,0,0,1,1550.6,715.1Z" transform="translate(-248.7 -303.35)"/><path class="cls-12" d="M1534.5,713.2a1.65,1.65,0,1,1-2-1.2c.1,0,.3-.1.4-.1A1.71,1.71,0,0,1,1534.5,713.2Z" transform="translate(-248.7 -303.35)"/><path class="cls-12" d="M1542.6,711.1c0,1.1-1.2,2-2.6,2s-2.6-.9-2.6-2,1.2-2,2.6-2S1542.6,710,1542.6,711.1Z" transform="translate(-248.7 -303.35)"/><path class="cls-12" d="M1540,717.6a1.81,1.81,0,1,1-3.5.9,1.78,1.78,0,0,1,1.3-2.2c.2,0,.3-.1.5-.1A1.56,1.56,0,0,1,1540,717.6Z" transform="translate(-248.7 -303.35)"/><path class="cls-12" d="M1516.8,710.2a1.2,1.2,0,1,1-1.5-.8h.3A1,1,0,0,1,1516.8,710.2Z" transform="translate(-248.7 -303.35)"/><path class="cls-2" d="M1530.2,713.4s-2.3,0-4.1,3.2C1526.2,716.7,1529.1,717.5,1530.2,713.4Z" transform="translate(-248.7 -303.35)"/><path class="cls-2" d="M1556.5,716.5s-1.7-3-4.2-2.8C1552.3,713.6,1554.4,718.1,1556.5,716.5Z" transform="translate(-248.7 -303.35)"/><path class="cls-2" d="M1535.8,721.4s-1.8-2.8-4.2-2.6C1531.6,718.9,1533.7,723.2,1535.8,721.4Z" transform="translate(-248.7 -303.35)"/><path class="cls-2" d="M1549.5,724.3s-2.3-.5-4.2,2.2C1545.3,726.5,1548.2,728,1549.5,724.3Z" transform="translate(-248.7 -303.35)"/><path class="cls-2" d="M1514.6,707.5a3.28,3.28,0,0,0-3.8,1.2,2.49,2.49,0,0,0,3.4-.3A3.55,3.55,0,0,0,1514.6,707.5Z" transform="translate(-248.7 -303.35)"/><path class="cls-34" d="M1305.7,795.1c-21.3,3.1-40.6,5.6-54.1,14.5-12.4,8.2-20.1,19.2-20.1,31.4,0,13.5,8.3,27.9,24.4,34,13.6,5.1,34.9,15.6,49.7,11.8,18.6-4.7,35-4.1,48-10.9l-6-4.4-41.9-30.6,67.5,3.7,6.3.3a28.28,28.28,0,0,0,.3-4.1c0-13-8.7-24.7-22.8-33.1C1343.8,800,1325.6,792.3,1305.7,795.1Z" transform="translate(-248.7 -303.35)"/><path class="cls-35" d="M1373.3,844.7l-67.5-3.7,41.9,30.6a81.32,81.32,0,0,1-13.6,4.8c-8.6,2.3-18.6.7-28.3,3.5-16.1,4.7-31-6.1-42.9-8.8-12.8-2.9-26.3-18.3-24.8-30.1,1.5-12.2,10.2-26.4,25.8-30.6,11.7-3.1,27.2-10.4,43-10.4,12.9,0,23.7,6.4,34,7.7,19.6,2.4,32.7,19.2,32.7,33.3C1373.5,842.2,1373.4,843.5,1373.3,844.7Z" transform="translate(-248.7 -303.35)"/><path class="cls-12" d="M1270.2,836.8c0,1.3-1.4,2.4-3.2,2.4s-3.2-1.1-3.2-2.4,1.4-2.4,3.2-2.4S1270.2,835.4,1270.2,836.8Z" transform="translate(-248.7 -303.35)"/><path class="cls-12" d="M1289.4,825.1c0,1.3-1.4,2.4-3.2,2.4s-3.2-1.1-3.2-2.4,1.4-2.4,3.2-2.4S1289.4,823.8,1289.4,825.1Z" transform="translate(-248.7 -303.35)"/><path class="cls-12" d="M1277.6,818.7c0,1.1-1.2,2-2.6,2s-2.6-.9-2.6-2,1.2-2,2.6-2S1277.6,817.6,1277.6,818.7Z" transform="translate(-248.7 -303.35)"/><path class="cls-12" d="M1301.2,813.8c0,1.2-1.3,2.2-2.9,2.2s-2.9-1-2.9-2.2,1.3-2.2,2.9-2.2S1301.2,812.5,1301.2,813.8Z" transform="translate(-248.7 -303.35)"/><path class="cls-12" d="M1301.2,836.8c0,1.9-2.1,3.5-4.6,3.5s-4.6-1.6-4.6-3.5,2-3.5,4.6-3.5S1301.2,834.8,1301.2,836.8Z" transform="translate(-248.7 -303.35)"/><path class="cls-12" d="M1311.2,824c0,1.3-1.4,2.4-3.2,2.4s-3.2-1.1-3.2-2.4,1.4-2.4,3.2-2.4S1311.2,822.6,1311.2,824Z" transform="translate(-248.7 -303.35)"/><path class="cls-12" d="M1325.8,825.2a1.65,1.65,0,1,1-2-1.2c.1,0,.3-.1.4-.1A1.53,1.53,0,0,1,1325.8,825.2Z" transform="translate(-248.7 -303.35)"/><path class="cls-12" d="M1319.2,814.8a1.65,1.65,0,1,1-2-1.2c.1,0,.3-.1.4-.1A1.53,1.53,0,0,1,1319.2,814.8Z" transform="translate(-248.7 -303.35)"/><path class="cls-12" d="M1301.2,853.8a1.65,1.65,0,1,1-2-1.2c.1,0,.3-.1.4-.1A1.62,1.62,0,0,1,1301.2,853.8Z" transform="translate(-248.7 -303.35)"/><path class="cls-12" d="M1312,859.3a1.65,1.65,0,1,1-2-1.2c.1,0,.3-.1.4-.1A1.62,1.62,0,0,1,1312,859.3Z" transform="translate(-248.7 -303.35)"/><path class="cls-12" d="M1288,849.8c0,1.5-1.6,2.7-3.6,2.7s-3.6-1.2-3.6-2.7,1.6-2.7,3.6-2.7S1288,848.3,1288,849.8Z" transform="translate(-248.7 -303.35)"/><path class="cls-2" d="M1267.5,850.5a3.9,3.9,0,0,0-4.6,1.2A2.8,2.8,0,0,0,1267.5,850.5Z" transform="translate(-248.7 -303.35)"/><path class="cls-2" d="M1285.6,833.2s-3.2-1.6-6.3,1.6C1279.3,834.8,1283.3,838.1,1285.6,833.2Z" transform="translate(-248.7 -303.35)"/><path class="cls-2" d="M1319.8,824s-3.3,0-5.9,4.7C1314,828.7,1318.3,829.8,1319.8,824Z" transform="translate(-248.7 -303.35)"/><path class="cls-2" d="M1335.1,827.5s-2.8-3.5-6.2-2.3C1328.9,825.2,1332.2,830.7,1335.1,827.5Z" transform="translate(-248.7 -303.35)"/><path class="cls-2" d="M1310.7,837.4s-1.6-4.6-4.4-6C1306.3,831.4,1307.9,838,1310.7,837.4Z" transform="translate(-248.7 -303.35)"/><path class="cls-2" d="M1305.3,844s-2.8-.4-5.1,3.2C1300.2,847.2,1303.8,848.7,1305.3,844Z" transform="translate(-248.7 -303.35)"/><path class="cls-2" d="M1307.9,864.5s-2.3-3.2-5.2-2.5C1302.7,862,1305.4,867,1307.9,864.5Z" transform="translate(-248.7 -303.35)"/><path class="cls-2" d="M1311.9,850.7s-2.8-.2-5,3.5C1306.9,854.3,1310.5,855.5,1311.9,850.7Z" transform="translate(-248.7 -303.35)"/><path class="cls-2" d="M1299.2,825.3s-2.7-1.2-5.3,1.6C1294,826.9,1297.4,829.5,1299.2,825.3Z" transform="translate(-248.7 -303.35)"/><path class="cls-2" d="M1292.3,819.3s-2.1-3.7-5-3.7C1287.3,815.6,1289.7,821.2,1292.3,819.3Z" transform="translate(-248.7 -303.35)"/><path class="cls-36" d="M1271.8,853.5h0c-3.1,1.6-4.7,4.8-3.5,7.1h0c.9,1.8,2.9,1.4,5.2.4l1.2,2.2a.78.78,0,0,0,1,.2l2.2-1.1a.72.72,0,0,0,.5-.9l-1.2-2.2c2.1-1.2,3.4-2.5,2.4-4.3h0C1278.4,852.6,1274.9,852,1271.8,853.5Z" transform="translate(-248.7 -303.35)"/><path class="cls-36" d="M1330.9,812.9h0c2.5,1.3,3.8,3.9,2.8,5.8h0c-.7,1.4-2.4,1.1-4.2.3l-.9,1.8a.65.65,0,0,1-.8.2l-1.8-.9a.68.68,0,0,1-.4-.8l.9-1.8c-1.7-1-2.8-2-2-3.5h0C1325.5,812.1,1328.4,811.6,1330.9,812.9Z" transform="translate(-248.7 -303.35)"/><path class="cls-36" d="M1294.7,843.7h0c2.5,1.3,3.8,3.9,2.8,5.8h0c-.7,1.4-2.4,1.1-4.2.3l-.9,1.8a.65.65,0,0,1-.8.2l-1.8-.9a.68.68,0,0,1-.4-.8l.9-1.8c-1.7-1-2.8-2-2-3.5h0C1289.3,842.9,1292.1,842.4,1294.7,843.7Z" transform="translate(-248.7 -303.35)"/><path class="cls-36" d="M1273.2,824h0c-2.5,1.3-3.8,3.9-2.8,5.8h0c.7,1.4,2.4,1.1,4.2.3l.9,1.8a.65.65,0,0,0,.8.2l1.8-.9a.68.68,0,0,0,.4-.8l-.9-1.8c1.7-1,2.8-2,2-3.5h0C1278.6,823.2,1275.7,822.7,1273.2,824Z" transform="translate(-248.7 -303.35)"/><path class="cls-34" d="M1383.8,840.9l-58.2-3.2-8-4.4v4l45.4,33.2c13.7-7.2,22.9-17.6,24.6-29.3v-4Z" transform="translate(-248.7 -303.35)"/><path class="cls-37" d="M1387.7,837.1c-1.7,11.7-10.9,22.1-24.6,29.3l-20.6-15-4.3-3.1h0l-20.6-15Z" transform="translate(-248.7 -303.35)"/><path class="cls-12" d="M1340.9,840.4c0,1.3-1.4,2.4-3.2,2.4s-3.2-1.1-3.2-2.4,1.4-2.4,3.2-2.4S1340.9,839.1,1340.9,840.4Z" transform="translate(-248.7 -303.35)"/><path class="cls-12" d="M1344.2,849.2a2.58,2.58,0,0,1-1.8,2.2l-4.3-3.1a3.39,3.39,0,0,1,2.9-1.5C1342.8,846.8,1344.2,847.9,1344.2,849.2Z" transform="translate(-248.7 -303.35)"/><path class="cls-12" d="M1355.6,849.8a1.65,1.65,0,1,1-2-1.2c.1,0,.3-.1.4-.1A1.53,1.53,0,0,1,1355.6,849.8Z" transform="translate(-248.7 -303.35)"/><path class="cls-12" d="M1364.1,842.8a1.65,1.65,0,1,1-2-1.2c.1,0,.3-.1.4-.1A1.62,1.62,0,0,1,1364.1,842.8Z" transform="translate(-248.7 -303.35)"/><path class="cls-12" d="M1348,841a1.65,1.65,0,1,1-2-1.2c.1,0,.3-.1.4-.1A1.53,1.53,0,0,1,1348,841Z" transform="translate(-248.7 -303.35)"/><path class="cls-12" d="M1356.1,838.9c0,1.1-1.2,2-2.6,2s-2.6-.9-2.6-2,1.2-2,2.6-2S1356.1,837.8,1356.1,838.9Z" transform="translate(-248.7 -303.35)"/><path class="cls-12" d="M1353.5,845.3a1.81,1.81,0,1,1-3.5.9,1.78,1.78,0,0,1,1.3-2.2c.2,0,.3-.1.5-.1A1.72,1.72,0,0,1,1353.5,845.3Z" transform="translate(-248.7 -303.35)"/><path class="cls-12" d="M1330.3,838a1.2,1.2,0,1,1-1.5-.8h.3A.91.91,0,0,1,1330.3,838Z" transform="translate(-248.7 -303.35)"/><path class="cls-2" d="M1343.8,841.2s-2.3,0-4.1,3.2C1339.7,844.4,1342.7,845.2,1343.8,841.2Z" transform="translate(-248.7 -303.35)"/><path class="cls-2" d="M1370,844.2s-1.7-3-4.2-2.8C1365.9,841.4,1367.9,845.9,1370,844.2Z" transform="translate(-248.7 -303.35)"/><path class="cls-2" d="M1349.3,849.2s-1.8-2.8-4.2-2.6C1345.1,846.6,1347.2,851,1349.3,849.2Z" transform="translate(-248.7 -303.35)"/><path class="cls-2" d="M1363.1,852.1s-2.3-.6-4.2,2.2C1358.8,854.3,1361.7,855.8,1363.1,852.1Z" transform="translate(-248.7 -303.35)"/><path class="cls-2" d="M1328.1,835.2a3.28,3.28,0,0,0-3.8,1.2,2.4,2.4,0,0,0,3.4-.4C1327.9,835.9,1328,835.6,1328.1,835.2Z" transform="translate(-248.7 -303.35)"/><path class="cls-34" d="M1618.4,1132.8s-9.2,4.4-11.8,10-13,3.6-17.6,7.2-9.4,14.1-22.1,14v2.3l5.1,2s34.5-9.6,39.2-13.3,16-13.5,16-13.5l1.6-8.3Z" transform="translate(-248.7 -303.35)"/><path class="cls-18" d="M1418.6,1365.3H1318.2a4.06,4.06,0,0,1-4.1-4.1h0a4.06,4.06,0,0,1,4.1-4.1h100.4a4.06,4.06,0,0,1,4.1,4.1h0A4.12,4.12,0,0,1,1418.6,1365.3Z" transform="translate(-248.7 -303.35)"/><path class="cls-18" d="M1418.6,1346.1H1318.2a4.06,4.06,0,0,1-4.1-4.1h0a4.06,4.06,0,0,1,4.1-4.1h100.4a4.06,4.06,0,0,1,4.1,4.1h0A4.12,4.12,0,0,1,1418.6,1346.1Z" transform="translate(-248.7 -303.35)"/><path class="cls-36" d="M1363.1,696.4H1246.6a4.48,4.48,0,0,1-4.5-4.5h0a4.48,4.48,0,0,1,4.5-4.5h116.5a4.48,4.48,0,0,1,4.5,4.5h0A4.48,4.48,0,0,1,1363.1,696.4Z" transform="translate(-248.7 -303.35)"/><path class="cls-36" d="M1363.1,714.7H1246.6a4.48,4.48,0,0,1-4.5-4.5h0a4.48,4.48,0,0,1,4.5-4.5h116.5a4.48,4.48,0,0,1,4.5,4.5h0A4.48,4.48,0,0,1,1363.1,714.7Z" transform="translate(-248.7 -303.35)"/><path class="cls-36" d="M1363.1,733H1246.6a4.48,4.48,0,0,1-4.5-4.5h0a4.48,4.48,0,0,1,4.5-4.5h116.5a4.48,4.48,0,0,1,4.5,4.5h0A4.48,4.48,0,0,1,1363.1,733Z" transform="translate(-248.7 -303.35)"/><path class="cls-36" d="M1562.3,565.9H1445.8a4.48,4.48,0,0,1-4.5-4.5h0a4.48,4.48,0,0,1,4.5-4.5h116.5a4.48,4.48,0,0,1,4.5,4.5h0A4.48,4.48,0,0,1,1562.3,565.9Z" transform="translate(-248.7 -303.35)"/><path class="cls-36" d="M1562.3,584.2H1445.8a4.48,4.48,0,0,1-4.5-4.5h0a4.48,4.48,0,0,1,4.5-4.5h116.5a4.48,4.48,0,0,1,4.5,4.5h0A4.61,4.61,0,0,1,1562.3,584.2Z" transform="translate(-248.7 -303.35)"/><path class="cls-36" d="M1562.3,602.5H1445.8a4.48,4.48,0,0,1-4.5-4.5h0a4.48,4.48,0,0,1,4.5-4.5h116.5a4.48,4.48,0,0,1,4.5,4.5h0A4.61,4.61,0,0,1,1562.3,602.5Z" transform="translate(-248.7 -303.35)"/><path class="cls-36" d="M1562.3,825.4H1445.8a4.48,4.48,0,0,1-4.5-4.5h0a4.48,4.48,0,0,1,4.5-4.5h116.5a4.48,4.48,0,0,1,4.5,4.5h0A4.48,4.48,0,0,1,1562.3,825.4Z" transform="translate(-248.7 -303.35)"/><path class="cls-36" d="M1562.3,843.7H1445.8a4.48,4.48,0,0,1-4.5-4.5h0a4.48,4.48,0,0,1,4.5-4.5h116.5a4.48,4.48,0,0,1,4.5,4.5h0A4.48,4.48,0,0,1,1562.3,843.7Z" transform="translate(-248.7 -303.35)"/><path class="cls-36" d="M1562.3,862H1445.8a4.48,4.48,0,0,1-4.5-4.5h0a4.48,4.48,0,0,1,4.5-4.5h116.5a4.48,4.48,0,0,1,4.5,4.5h0A4.48,4.48,0,0,1,1562.3,862Z" transform="translate(-248.7 -303.35)"/><path class="cls-27" d="M1881.1,839.2H1769.5a33.59,33.59,0,0,1-33.4-33.4h0a33.59,33.59,0,0,1,33.4-33.4h111.6a33.59,33.59,0,0,1,33.4,33.4h0A33.59,33.59,0,0,1,1881.1,839.2Z" transform="translate(-248.7 -303.35)"/><path class="cls-15" d="M1803.9,796.2s21.2,29.7,21.1,28.5,21.6-42.1,21.6-42.1l-24.9,24.2Z" transform="translate(-248.7 -303.35)"/><polygon class="cls-25" points="1224.3 901.05 1152.7 918.35 1130.4 908.85 1199.8 892.85 1224.3 901.05"/><path class="cls-38" d="M251.8,1651.2H2753.9a3.12,3.12,0,0,1,3.1,3.1v1.6a3.12,3.12,0,0,1-3.1,3.1H251.8a3.12,3.12,0,0,1-3.1-3.1v-1.6A3.18,3.18,0,0,1,251.8,1651.2Z" transform="translate(-248.7 -303.35)"/></svg>