<?xml version="1.0" encoding="utf-8"?>
<!-- Generator: Adobe Illustrator 24.3.0, SVG Export Plug-In . SVG Version: 6.00 Build 0)  -->
<svg version="1.1" id="Слой_1" xmlns="http://www.w3.org/2000/svg" xmlns:xlink="http://www.w3.org/1999/xlink" x="0px" y="0px"
	 viewBox="0 0 3000 2000" style="enable-background:new 0 0 3000 2000;" xml:space="preserve">
<style type="text/css">
	.st0{fill:#FFFFFF;}
	.st1{fill:#EBF3FA;}
	.st2{fill:#82B378;}
	.st3{fill:#A8D29F;}
	.st4{fill:#233862;}
	.st5{fill:#B7D3F3;}
	.st6{fill:#D2E3FC;}
	.st7{fill:#C5DCF8;}
	.st8{fill:#D1E6FA;}
	.st9{fill:#FFB27D;}
	.st10{fill:#932722;}
	.st11{fill:#163560;}
	.st12{fill:#B5453C;}
	.st13{fill:#1C468A;}
	.st14{fill:#ED975D;}
	.st15{fill:#96302A;}
	.st16{fill:#97BADD;}
	.st17{fill:#FCECDB;}
	.st18{fill:#78ACEA;}
	.st19{fill:#AFCDFB;}
	.st20{opacity:0.4;fill:#5E92DD;enable-background:new    ;}
	.st21{fill:#95C0F4;}
	.st22{fill:#8CBAF1;}
	.st23{fill:#C0D8FB;}
	.st24{fill:#FFFBF8;}
	.st25{fill:#699DEE;}
	.st26{fill:#F99746;}
	.st27{fill:#FFB176;}
	.st28{fill:#B25918;}
	.st29{fill:#ED7D2B;}
	.st30{fill:#2A4E96;}
	.st31{fill:#ED985F;}
	.st32{fill:#2C3A64;}
	.st33{fill:#FFE4CC;}
	.st34{fill:#F77548;}
	.st35{fill:#EFCBAB;}
	.st36{fill:#FF7D5A;}
	.st37{fill:#2E3552;}
</style>
<rect class="st0" width="3000" height="2000"/>
<path class="st1" d="M414,1649.4c0,0-295.8-320.7-50-667.9c218.1-308.1,472.3-287,658.8-162c79.5,53.2,308.5,6.6,503.4-306.9
	C1792,85.1,2713.6,344.4,2545.6,1002.1c-81.3,318.3,247.5,329.9,79.9,648L414,1649.4z"/>
<path class="st2" d="M1727.2,1483.7c0,0-56.3-65.7-3.5-107.5c0,0,38.6-23.4,70.1-21.5c0,0-44.6,74.8-30.2,82.2s43.7-86.9,43.7-86.9
	s87.9-8.5,116.1,5.1c0,0-75.1,61.5-59.3,65.1s97-56.7,97-56.7s81.8,13.9,77.4,63.8s-32.5,65.3-44.9,64s-84.8-29-86.4-18.8
	s42,43.3,72.6,44.9c0,0-57.7,63.6-96,45.2s-41.6-47.4-65.5-58.3s-44.3-10.9-34.4,0.2s53.1,21.9,66.8,46.1s25.9,40.5-13.7,34.5
	s-104.1-35-106.9-68.2L1727.2,1483.7z"/>
<path class="st2" d="M1998.4,1428.7c0,0-222.1-8.6-271.2,55c0,0-10.8,32.5-44.2,62.1l-5.2,14.2c0,0,38.5-40.6,52.3-43
	C1730.1,1516.9,1708.5,1438.2,1998.4,1428.7z"/>
<path class="st2" d="M1683,1545.8c0,0-47.7,35.3-51,98.3l8.7,0.8c0,0,15.2-65.1,42.8-90.6S1683,1545.8,1683,1545.8z"/>
<path class="st3" d="M1146.8,946.8c0,0,86.2-48.3,46-113.8c0,0-32.2-40.2-66.6-50.6c0,0,18.4,97.7,0,100s-12.6-110.3-12.6-110.3
	s-90.8-43.7-126.4-40.2c0,0,56.3,95.4,37.9,93.1s-81.6-98.8-81.6-98.8s-93.1-17.2-108,37.9s9.2,82.7,23,86.2s102.3,2.3,100,13.8
	s-62,29.9-95.4,19.5c0,0,36.8,90.8,85,86.2s63.2-34.5,93.1-36.8c29.9-2.3,51.7,5.8,36.8,13.8s-65.5,2.6-89.6,23.2
	s-43.7,33.2,1.2,42.3c44.8,9.2,125.2,3.5,141.3-31L1146.8,946.8z"/>
<path class="st2" d="M877.9,781.3c0,0,241.3,78.1,268.9,165.5c0,0-1.2,39.1,23,83.9v17.2c0,0-25.3-58.6-39.1-66.6
	C1130.7,981.3,1184.7,905.4,877.9,781.3z"/>
<path class="st2" d="M1169.8,1030.7c0,0,37.2,56.5,16,125.3l-9.6-2.6c0,0,9.3-75.8-10.2-113.9S1169.8,1030.7,1169.8,1030.7z"/>
<path class="st3" d="M1672.8,1331.8c0,0-118.1-66.2-63-155.9c0,0,44.1-55.1,91.4-69.3c0,0-25.2,133.9,0,137s17.3-151.2,17.3-151.2
	s124.4-59.8,173.3-55.1c0,0-77.2,130.7-52,127.6s111.8-135.4,111.8-135.4s127.6-23.6,148.1,52s-12.6,113.4-31.5,118.1
	s-140.2,3.2-137,18.9s85,40.9,130.7,26.8c0,0-50.4,124.4-116.6,118.1s-86.6-47.2-127.6-50.4s-70.9,7.9-50.4,18.9
	s89.8,3.6,122.9,31.7s59.8,45.4-1.6,58s-171.7,4.7-193.7-42.5L1672.8,1331.8z"/>
<path class="st2" d="M2041.4,1105c0,0-330.8,107.1-368.6,226.8c0,0,1.6,53.6-31.5,115v23.6c0,0,34.7-80.3,53.6-91.4
	C1694.9,1379.1,1620.9,1275.1,2041.4,1105z"/>
<path class="st2" d="M1641.3,1446.8c0,0-51,77.5-21.9,171.8l13.1-3.5c0,0-12.7-103.9,14-156.1S1641.3,1446.8,1641.3,1446.8z"/>
<path class="st4" d="M562.2,1007.5c0,0-20.6,17.1,2.1,38.8c0,0-19.5,6.8-25.8,2.2c0.7,1.2,1.5,2.4,2.5,3.4c0,0-19.9,1.8-28.5-4
	s-8.9-108.2,47.2-99.8c0,0,46.8-6.1,45.4,48.5c-1.4,54.6,16.3,53.6,16.3,53.6s-4.8,2.7-7.2,2.8c0,0-3.6-1.1-4.3-3c0,0,0.8,3,1.8,3.9
	c0,0-19,2.9-29-3.8S560,1018.8,562.2,1007.5z"/>
<path class="st4" d="M559.2,1035.4c0,0-16-15.2-22.6-30c-4.7-10.6-27.5-53.3,15.1-57.7c0,0,30.4-1.4,43.6,3.3
	c10.5,3.8,26.6,13.6,21.1,53l-0.7,13L559.2,1035.4z"/>
<path class="st5" d="M510.5,1339.1c-1.8-44.9-5.8-83.9-10.5-111.2c-7.5-43.4-14.3-68.4-14.3-68.7c-1-3.8-15.3-19.3-47-18.8
	s-28.8,20.7-28.8,20.7l0,0c0,0.6,0.1,1.2,0.2,1.8c0.3,1,29.5,106.8,28.2,243.3c0,1.9-0.2,5.2-0.1,7.4c0,0,73.6,1.9,73.6,0
	C514.4,1401.8,513.1,1368.7,510.5,1339.1z"/>
<path class="st6" d="M519.7,1405.6c0,1.9-1,3.4-2.2,3.4l0,0c-1.2,0-2.2-1.6-2.2-3.4h-63.1c0,1.9-1,3.4-2.2,3.4l0,0
	c-1.2,0-2.2-1.6-2.2-3.5c0.3-36-1.5-72-5.2-107.8c-8.4-80.3-23.9-134-24.1-134.7c-0.2-0.6-0.2-1.2-0.2-1.8c0,0-3-20.2,28.8-20.7
	s46.1,15,47,18.8c0,0.2,3.9,14.3,9,39.8c1.7,8.4,3.5,18.1,5.4,28.9c4.7,27.2,8.6,66.3,10.5,111.2
	C521.4,1368.7,522.3,1393.7,519.7,1405.6z"/>
<path class="st7" d="M443,1409h247.3c0,0-5.8-23.3-149-19.8C440,1391.6,443,1409,443,1409z"/>
<path class="st8" d="M422.9,1652.4c28.7-145.2,21.3-234.2,21.3-235.4c-0.1-2.2,4-4.3,6.3-4.3s12.1-0.7,13.3,1.2
	c1.5,2.5,7.3,112.3-35.5,238.5L422.9,1652.4L422.9,1652.4z"/>
<path class="st8" d="M653.8,1652.4c-28.7-145.2-21.3-234.2-21.3-235.4c0.1-2.2-4-4.3-6.3-4.3s-12.1-0.7-13.3,1.2
	c-1.5,2.5-7.3,112.3,35.5,238.5L653.8,1652.4L653.8,1652.4z"/>
<path class="st8" d="M699.5,1652.4c-28.7-145.2-21.3-234.2-21.3-235.4c0.1-2.2-4-4.3-6.3-4.3s-12.1-0.7-13.3,1.2
	c-1.5,2.5-7.3,112.3,35.5,238.5L699.5,1652.4L699.5,1652.4z"/>
<path class="st8" d="M468.9,1652.4c28.7-145.2,21.3-234.2,21.3-235.4c-0.1-2.2,4-4.3,6.3-4.3s12.1-0.7,13.3,1.2
	c1.5,2.5,7.3,112.3-35.5,238.5L468.9,1652.4L468.9,1652.4z"/>
<path class="st5" d="M443.1,1403h247.3c2.8,0,5.1,2.3,5.1,5.1v3.3c0,2.8-2.3,5.1-5.1,5.1H443.1c-2.8,0-5.1-2.3-5.1-5.1v-3.3
	C438.1,1405.2,440.3,1403,443.1,1403z"/>
<path class="st9" d="M821.3,1658.7c-9,0-27.7,2.3-35.8-7.6s-25.9-14.9-28.1-18c-1.2-1.7,0.4-9.3,2.2-16l0,0
	c4.4-6.1-2.7-14.3-2.7-14.3l23.7,1.6c0,0,11.3,15,19.6,27c3.2,4.6,12.7,11.4,18.4,13.5c7.4,2.7,14.8,4.3,17.5,6.9
	C840.8,1656.4,830.4,1658.7,821.3,1658.7z"/>
<path class="st10" d="M821.3,1658.7c-9,0-27.7,2.3-35.8-7.6s-25.9-14.9-28.1-18c-1.2-1.7-1.3-8.7,2.2-16l0,0c0,0,14.9,6.1,23.3,17.8
	s30.8,16.8,35.6,10l0.1-0.1c7.4,2.7,14.8,4.3,17.5,6.9C840.8,1656.4,830.4,1658.7,821.3,1658.7z"/>
<polygon class="st10" points="757.4,1633.1 766.5,1652.4 772.5,1653.1 771.6,1635.8 "/>
<path class="st11" d="M580,1289.7c0,0,131.7,40.8,160.1,64.4s48.1,257.3,48.1,257.3s-3.4,2-10.3,1.9c-6.5-0.1-20-5.7-20-5.7
	s-57.9-111-59.6-137.3s2.6-49-8.8-51.1s-156.1-2.9-172.7-43.7s6.2-76,6.2-76L580,1289.7z"/>
<path class="st9" d="M790.8,1658.7c-9,0-27.7,2.3-35.8-7.6s-25.9-14.9-28.1-18c-1.2-1.7,0.4-9.3,2.1-16l0,0
	c4.4-6.1-2.7-14.3-2.7-14.3l23.7,1.6c0,0,11.3,15,19.6,27c3.2,4.6,12.7,11.4,18.4,13.5c7.4,2.7,14.8,4.3,17.5,6.9
	C810.2,1656.4,799.8,1658.7,790.8,1658.7z"/>
<path class="st12" d="M790.8,1658.7c-9,0-27.7,2.3-35.8-7.6s-25.9-14.9-28.1-18c-1.2-1.7-1.3-8.7,2.1-16l0,0c0,0,14.9,6.1,23.3,17.8
	s30.8,16.8,35.6,10l0.1-0.1c7.4,2.7,14.8,4.3,17.5,6.9C810.2,1656.4,799.8,1658.7,790.8,1658.7z"/>
<polygon class="st12" points="726.8,1633.1 735.9,1652.4 741.9,1653.1 741,1635.8 "/>
<path class="st13" d="M545.5,1302.1c0,0,135.7,28.5,164,52s48.1,257.3,48.1,257.3s-3.4,2-10.3,1.9c-6.4-0.1-20-5.7-20-5.7
	s-57.9-111-59.6-137.3s2.6-49-8.8-51.1s-156.1-2.9-172.7-43.7s6.2-76,6.2-76L545.5,1302.1z"/>
<path class="st9" d="M596.5,1083.2c0.2,0.1-15.8,8.4-27.8,5.1c-11.3-3.1-18.7-17.7-18.5-17.8c4.8-1,6.2-7.5,6.1-35.8l2.2,0.4
	l36.3,7.2c0,0-0.8,11.4-0.8,22.2C593.9,1073.7,594.4,1082.2,596.5,1083.2z"/>
<path class="st14" d="M594.8,1042.4c0,0-0.8,11.4-0.8,22.2c-20.3-0.6-31.1-19.1-35.5-29.4L594.8,1042.4z"/>
<path class="st9" d="M601.6,1052.6c0,0-48.1,0.8-48.2-29.2s-6.3-50.1,24.5-51.8s36.7,9.7,39.2,19.7S614.1,1051.6,601.6,1052.6z"/>
<path class="st0" d="M489.3,1212.7c-4.7-19.9,11.4-58.5,28.3-90.5c15.3-29,31.2-52.5,32.6-51.7c40.3,23.9,44,4,44,4l0,0
	c0,0,36.6,4.9,47,22.7c12.9,22.2,26.8,84.1,40.6,95.8c-2.1,6.5-1.2,10,1,18c0.5,1.7,1,3.4,1.6,4.9c1.9,4.9,4.2,9.7,6.9,14.2
	c-7,4.3-20.6,12.4-30.6,6.6c-15.2-8.9-27.1-36-33.8-46.8l-0.1-0.1c-14.5,82.3,5.2,101-4.8,109.7c-10.6,9.2-25.7-4.4-58.8,10
	c-21.8,9.4-52,23.1-72.3,25.5c-10.7,1.3-18.6-0.6-21.2-7.8C462.2,1306.2,498.4,1250.6,489.3,1212.7z"/>
<path class="st0" d="M590.9,1034.4c0,0,0.9,3.8,10.4,3.2c0,0,8-0.5,7.7-4.7C608.9,1033,601.2,1030,590.9,1034.4z"/>
<path class="st0" d="M462.9,1241.9c10.8-15.2,22-23.2,29.4-27.2c-1.7-4.4,45.4-62.1,45.4-71s12.6-73.2,12.6-73.2
	s-39.2,2.4-52.8,21.4C480.4,1115.6,445.1,1206.7,462.9,1241.9z"/>
<path class="st9" d="M492.3,1214.7l78.4,20.4l-7.4,13.2c0,0-95.4-0.7-100.4-6.5S492.3,1214.7,492.3,1214.7z"/>
<path class="st11" d="M627,1189.9c6.7,10.8,18.6,37.9,33.8,46.8c10,5.8,23.5-2.3,30.6-6.6c-2.7-4.5-5-9.3-7-14.2
	c-5.6,1.3-12.4,2.9-16.8,4.2C659,1222.8,627,1189.9,627,1189.9z"/>
<polygon class="st12" points="619,1179.2 577,1272.2 676.5,1281.6 715.6,1187.1 "/>
<path class="st15" d="M715.6,1187.1l46.4-29.4l-46.4,101.5l-39.1,22.5L715.6,1187.1z"/>
<path class="st9" d="M570.6,1235.2c0,0,14.5-6.4,18.2-9.7c2.4-2.1,2.2,0.9,2,1.7c-0.6,3.2-2.5,6-5.3,7.8
	C579.4,1239,570.6,1235.2,570.6,1235.2z"/>
<path class="st4" d="M596.7,960.8c0,0-15.3,43-37.4,50s-29.2-1.8-29.2-1.8s16.4-14.6,18.7-38.5C548.8,970.4,584.7,942.9,596.7,960.8
	z"/>
<path class="st4" d="M593.2,964.2c0,0,11.4,8.1,14.5,16.4s5.3,25.6,10.3,24.8c0,0,9.5-27-3.6-41.3
	C600.4,948.8,593.2,964.2,593.2,964.2z"/>
<path class="st4" d="M595.3,965.4c0,0-8.2,41.3-35.7,55.9c0,0,26.8-26.6,27.8-53.6S595.3,965.4,595.3,965.4z"/>
<path class="st4" d="M512.5,1047.9c8.6,5.8,28.5,4,28.5,4c-1-1-1.8-2.1-2.5-3.4c11.8,5.8,34.9-5.5,34.9-5.5
	c-20.5,0.1-20.5-29.5-14.1-32.2c-0.9-22.1,0.8-50.2,1.8-62.9c-0.9,0-1.4,0.1-1.4,0.1C503.6,939.7,503.9,1042.1,512.5,1047.9z"/>
<path class="st9" d="M570.6,1235.2c0,0,25.5-4.9,31.1-3.6s18.2,6.6,19.1,7.8s-3.7,1.8-6.9,0.5c-4.2-1.7-11.2-1-11.2-1
	s13.5,4.4,16.8,6.3c0.2,0.1,0.3,0.5,0.2,0.7c0,0.1-0.1,0.1-0.2,0.2c-0.9,0.6-3.1,0.8-6.1,0c-4-0.8-8-1.4-12.1-1.8l15.4,5
	c0.2,0.1,0.3,0.3,0.3,0.5c-0.1,0.7-1.4,1.4-5.1,1.2c-2.8-0.2-12.3-2.6-12.3-2.6l8.1,5.4c0,0-2.2,1.3-6.4-0.6
	c-2.9-1.3-11.6-4.5-13.7-4.2s-12.9,3.2-17.6,1.7l-6.7-2.2L570.6,1235.2z"/>
<path class="st5" d="M541.6,1652.4c2.2,0,4.1-1.6,4.5-3.7l22.3-126.4l32.1-181.8l9-50.8l-22.8-0.7l-4,29.5l-27.8,207.3l-16.5,122.9
	c-0.2,1.8,1.1,3.4,2.8,3.6C541.3,1652.4,541.5,1652.5,541.6,1652.4z"/>
<path class="st16" d="M582.7,1318.6c14.8,6.5,17.8,22,17.8,22l9-50.8l-22.8-0.7L582.7,1318.6z"/>
<path class="st5" d="M1109.8,1652.4c-2.2,0-4.1-1.6-4.5-3.7l-22.3-126.4l-32.1-181.8l-9-50.8l22.8-0.7l4,29.5l27.8,207.3l16.5,122.9
	c0.2,1.8-1,3.4-2.8,3.6C1110.1,1652.4,1110,1652.5,1109.8,1652.4z"/>
<path class="st16" d="M1068.7,1318.6c-14.8,6.5-17.8,22-17.8,22l-9-50.8l22.8-0.7L1068.7,1318.6z"/>
<path class="st5" d="M1115,1309.7H522.8c-5.7,0-10.3-4.6-10.3-10.3v-4.7c0-5.7,4.6-10.3,10.3-10.3H1115c5.7,0,10.3,4.6,10.3,10.3
	v4.7C1125.3,1305.1,1120.7,1309.7,1115,1309.7z"/>
<path class="st17" d="M1749.6,1335.5h-111.7c-3.1,0-5.6-2.5-5.6-5.6l0,0c0-3.1,2.5-5.6,5.6-5.6h111.7c3.1,0,5.6,2.5,5.6,5.6l0,0
	C1755.2,1333,1752.7,1335.5,1749.6,1335.5z"/>
<path class="st17" d="M1749.6,1357.5h-111.7c-3.1,0-5.6-2.5-5.6-5.6l0,0c0-3.1,2.5-5.6,5.6-5.6h111.7c3.1,0,5.6,2.5,5.6,5.6l0,0
	C1755.2,1355,1752.7,1357.5,1749.6,1357.5z"/>
<path class="st18" d="M1773.1,407.8v1209.5c-0.1,18.7-14.9,33.9-33.6,34.5h-605.7c-19-0.1-34.4-15.5-34.5-34.5V407.8
	c0.1-19,15.5-34.4,34.5-34.5h604.8C1757.7,373.3,1773.1,388.7,1773.1,407.8z"/>
<path class="st19" d="M1808.8,407.8v1209.5c-0.1,19-15.5,34.4-34.5,34.5h-604.8c-19-0.1-34.4-15.5-34.5-34.5V407.8
	c0-19,15.5-34.4,34.5-34.5h604.8C1793.3,373.3,1808.7,388.7,1808.8,407.8z"/>
<path class="st20" d="M1570.6,421.7h-175.2c-3.8,0-6.8-3.1-6.8-6.8l0,0c0-3.8,3.1-6.8,6.8-6.8h175.2c3.8,0,6.8,3.1,6.8,6.8l0,0
	C1577.4,418.6,1574.4,421.7,1570.6,421.7z"/>
<path class="st20" d="M1364.3,421.7L1364.3,421.7c-3.8,0-6.8-3.1-6.8-6.8l0,0c0-3.8,3.1-6.8,6.8-6.8l0,0c3.8,0,6.8,3.1,6.8,6.8l0,0
	C1371.1,418.6,1368.1,421.7,1364.3,421.7z"/>
<path class="st21" d="M1524.2,1581.1c0,24.3-19.7,43.9-43.9,44c-24.3,0-44-19.7-44-44s19.6-43.9,43.9-43.9
	c24.2-0.1,43.9,19.5,44,43.7C1524.2,1580.9,1524.2,1581,1524.2,1581.1z"/>
<rect x="1175.3" y="452" class="st6" width="597.5" height="1063.5"/>
<path class="st22" d="M1511.4,1612.1c-17,17.3-44.8,17.5-62.2,0.5c-17.3-17-17.5-44.8-0.5-62.2c2.4-2.4,5-4.5,7.9-6.4
	C1461,1562.7,1473.7,1594,1511.4,1612.1z"/>
<path class="st23" d="M1773.1,538.2v418.4H1204c-6.4,0-11.6-5.5-11.6-12.3V550.5c0-6.8,5.2-12.3,11.6-12.3H1773.1z"/>
<path class="st23" d="M1610.8,1040.7v393.7c0,6.8-4.7,12.3-10.5,12.3h-425v-418.4h425C1606.1,1028.3,1610.8,1033.9,1610.8,1040.7z"
	/>
<path class="st24" d="M2034.6,515.7v393.7c0,6.8-5.5,12.3-12.3,12.3h-797.4c-6.8,0-12.3-5.5-12.3-12.3V515.7
	c0-6.8,5.5-12.3,12.3-12.3h797.4C2029.1,503.4,2034.6,508.9,2034.6,515.7z"/>
<path class="st25" d="M2034.6,515.7v393.7c0,6.8-6.4,12.3-14.3,12.3h-396.7V503.4h396.7C2028.2,503.4,2034.6,508.9,2034.6,515.7z"/>
<path class="st17" d="M1858.8,557.8h-149.3c-2.5,0-4.5-2-4.5-4.5l0,0c0-2.5,2-4.5,4.5-4.5h149.3c2.5,0,4.5,2,4.5,4.5l0,0
	C1863.2,555.8,1861.2,557.8,1858.8,557.8z"/>
<path class="st17" d="M1858.8,575h-149.3c-2.5,0-4.5-2-4.5-4.5l0,0c0-2.5,2-4.5,4.5-4.5h149.3c2.5,0,4.5,2,4.5,4.5l0,0
	C1863.2,573,1861.2,575,1858.8,575z"/>
<path class="st17" d="M1678.7,547.9h3.7c2.9,0,5.3,2.4,5.3,5.3v0.2c0,2.9-2.4,5.3-5.3,5.3h-3.7c-2.9,0-5.3-2.4-5.3-5.3v-0.2
	C1673.3,550.3,1675.7,547.9,1678.7,547.9z"/>
<path class="st17" d="M1858.8,621.2h-149.3c-2.5,0-4.5-2-4.5-4.5l0,0c0-2.5,2-4.5,4.5-4.5h149.3c2.5,0,4.5,2,4.5,4.5l0,0
	C1863.2,619.2,1861.2,621.2,1858.8,621.2z"/>
<path class="st17" d="M1858.8,638.4h-149.3c-2.5,0-4.5-2-4.5-4.4l0,0c0-2.5,2-4.5,4.5-4.5h149.3c2.5,0,4.5,2,4.5,4.5l0,0
	C1863.2,636.5,1861.2,638.4,1858.8,638.4z"/>
<path class="st17" d="M1678.7,611.3h3.7c2.9,0,5.3,2.4,5.3,5.3v0.2c0,2.9-2.4,5.3-5.3,5.3h-3.7c-2.9,0-5.3-2.4-5.3-5.3v-0.2
	C1673.3,613.7,1675.7,611.3,1678.7,611.3z"/>
<path class="st17" d="M1858.8,683.9h-149.3c-2.5,0-4.5-2-4.5-4.5l0,0c0-2.5,2-4.5,4.5-4.5h149.3c2.5,0,4.5,2,4.5,4.5l0,0
	C1863.2,681.9,1861.2,683.9,1858.8,683.9z"/>
<path class="st17" d="M1858.8,701.1h-149.3c-2.5,0-4.5-2-4.5-4.5l0,0c0-2.5,2-4.5,4.5-4.5h149.3c2.5,0,4.5,2,4.5,4.5l0,0
	C1863.2,699.1,1861.2,701.1,1858.8,701.1z"/>
<path class="st17" d="M1678.7,674h3.7c2.9,0,5.3,2.4,5.3,5.3v0.2c0,2.9-2.4,5.3-5.3,5.3h-3.7c-2.9,0-5.3-2.4-5.3-5.3v-0.2
	C1673.3,676.4,1675.7,674,1678.7,674z"/>
<path class="st24" d="M1640.9,999.3V1393c0,6.8-5.5,12.3-12.3,12.3H831.2c-6.8,0-12.3-5.5-12.3-12.3V999.3c0-6.8,5.6-12.3,12.3-12.3
	h797.4C1635.3,987,1640.8,992.5,1640.9,999.3z"/>
<path class="st25" d="M1640.9,999.3V1393c0,6.8-5.5,12.3-12.3,12.3H1274V987h354.6C1635.3,987,1640.8,992.5,1640.9,999.3z"/>
<path class="st26" d="M925.8,1055.2c-24.4,0-44.2,19.8-44.2,44.2s19.8,44.2,44.2,44.2s44.2-19.8,44.2-44.2l0,0
	C970.1,1075.1,950.3,1055.3,925.8,1055.2C925.9,1055.2,925.9,1055.2,925.8,1055.2z M956.5,1100.9h-30.6c-0.8,0-1.4-0.6-1.4-1.4l0,0
	v-32.9c0-0.8,0.6-1.4,1.4-1.4c0.8,0,1.4,0.6,1.4,1.4v31.5h29.2c0.8,0,1.4,0.6,1.4,1.4C957.9,1100.3,957.3,1100.9,956.5,1100.9
	L956.5,1100.9z"/>
<path class="st26" d="M921.4,1226.4c-22,0-39.8,17.8-39.8,39.8l0,0c0,22,39.8,70.8,39.8,70.8s39.8-48.9,39.8-70.8
	C961.2,1244.2,943.4,1226.4,921.4,1226.4L921.4,1226.4z M921.4,1284.4c-10.3,0-18.6-8.3-18.6-18.6c0-10.3,8.3-18.6,18.6-18.6
	s18.6,8.3,18.6,18.6l0,0C940,1276.1,931.7,1284.4,921.4,1284.4z"/>
<path class="st17" d="M1144.9,1250.9H1000c-3.7,0-6.7-3-6.7-6.7l0,0c0-3.7,3-6.7,6.7-6.7h144.9c3.7,0,6.7,3,6.7,6.7l0,0
	C1151.6,1247.9,1148.6,1250.9,1144.9,1250.9z"/>
<path class="st17" d="M999.2,1263.1h108.1c3.2,0,5.8,2.6,5.8,5.8v1.7c0,3.2-2.6,5.8-5.8,5.8H999.2c-3.2,0-5.8-2.6-5.8-5.8v-1.7
	C993.4,1265.7,996,1263.1,999.2,1263.1z"/>
<path class="st17" d="M1144.9,1093.4H1000c-3.7,0-6.7-3-6.7-6.7l0,0c0-3.7,3-6.7,6.7-6.7h144.9c3.7,0,6.7,3,6.7,6.7l0,0
	C1151.6,1090.4,1148.6,1093.4,1144.9,1093.4z"/>
<path class="st17" d="M999.2,1105.6h108.1c3.2,0,5.8,2.6,5.8,5.8v1.7c0,3.2-2.6,5.8-5.8,5.8H999.2c-3.2,0-5.8-2.6-5.8-5.8v-1.7
	C993.4,1108.2,996,1105.6,999.2,1105.6z"/>
<polygon class="st27" points="1640.9,1175.5 1640.9,1107.7 1496.4,1048.2 1273.9,1093.9 1273.9,1185.5 1400.2,1237 1400.3,1237.1 
	"/>
<polygon class="st28" points="1399.9,1237.1 1399.9,1277.5 1273.9,1222.8 1273.9,1185.6 "/>
<polygon class="st26" points="1640.9,1175.5 1400.2,1237 1399.9,1237.1 1399.9,1277.5 1640.9,1211.7 "/>
<path class="st9" d="M1947.8,656.6c-0.8-0.5-2-1.2-3.3-1.9l0,0l-21.6-17.6c0,0-2.7,1.6,0,4.5c0.3,0.4,0.8,0.9,1.4,1.5l-8.2-6.4
	c-0.9,1-1.1,2.5-0.5,3.8c0.7,1.7,8.4,8.2,12.7,11.9c-2.6-1.3-6.3-4-11.8-9.6c-3.4-3.5-2.3,1.8-1.8,4c0.9,4,11.7,17.6,15.4,23.7
	s5.7,12.1,3,9.5s-17-11.5-18.5-9.5s7.2,9.5,11.3,15.5s8.7,16.2,23.4,18.5s17.2-5.2,17.2-5.2S1954.6,660.7,1947.8,656.6z"/>
<path class="st9" d="M2402.1,1023.8c0,0-3.6,34.8-7.5,41.4s-22.2,25.7-27.8,31.8c-0.4,0.4-4-2.8-1.3-7.4c11.1-18.7,8-14.2,4.2-26.5
	c-1.9-6.1-3.1,11.4-6.2,11.8s-2-18.4-2.1-24.2s15.8-8.4,17.6-29.1C2380.1,1008.3,2402.1,1023.8,2402.1,1023.8z"/>
<path class="st4" d="M2292.9,666.6c0,0-28.9,142.1-188.3,188.5c-49.7,14.5-162.7-149.3-162.7-149.3s4-15.1,28.9-11.6
	c0,0,110,72.8,123.9,80.8c12.3,7,93.1-90.2,130-105.9S2292.9,666.6,2292.9,666.6z"/>
<path class="st4" d="M2483.1,1559.9c0,0,19.8,18,15.9,30.8s-21.7,21.4-24.1,37s-12.1,24.2-20.7,24.2h-41.4c0,0-6.4-11,9-14.3
	s21.2-21.7,20.3-38.8s1.4-39.9,1.4-39.9l32.8-7.6L2483.1,1559.9z"/>
<path class="st4" d="M2240.6,1606.6c0,0,3.6,41.1-5.1,45.3l-111.1-0.2c0,0,0-12.8,17.8-15.7s49.2-13.3,54.5-36.6
	S2240.6,1606.6,2240.6,1606.6z"/>
<path class="st26" d="M2146.8,1026.7c0,0,5.9,72,12.7,158.5c9.4,117.5,20.6,261.8,21.7,289.2c1.9,47.5,9.6,123.4,9.6,123.4
	s18.3,18,55,10.4c0,0,32.7-108.4,42-223.1c0.1-1.9,0.3-3.8,0.4-5.7c8.7-116.8,22.2-362.7,22.2-362.7L2146.8,1026.7z"/>
<path class="st29" d="M2146.8,1026.7c0,0,5.9,72,12.7,158.5l128.3,199.9c0.1-1.9,0.3-3.8,0.4-5.7c8.7-116.8,22.2-362.7,22.2-362.7
	L2146.8,1026.7z"/>
<path class="st26" d="M2173.6,1035.2c0,0,105.6,260.6,175,383.1s91.1,156.7,91.1,156.7s39.8-15.7,43.4-26.3c0,0-26.6-236.4-73-294.1
	c-26.3-32.6-57.1-130.3-58.6-164.5s-9.4-101.8-9.4-101.8L2173.6,1035.2z"/>
<path class="st9" d="M2312.5,633.6c0,0-71.4,34.5-112.6,21.7c7.8-9.1,17.3-16.7,27.9-22.3c-1.4-8.3-2.5-15.4-3.2-21.5
	c-1-7.3-1.6-14.6-1.7-22l27.6-21.7l26.1-20.8C2274.5,605.3,2312.5,633.6,2312.5,633.6z"/>
<path class="st30" d="M2350.1,1001.6c0.2,4.4-9.2,9.4-13.3,11.2c-30.6,13.4-59.1,22.8-91.4,25.9c-38.2,3.9-83.3-4.7-98.8-4.4
	c-1.6,0-3.1-0.6-4.3-1.7c-1.1-0.8-1.9-46.8-1.1-104.7c0-2.3,0-4.7,0.2-7v-0.8c0.3-22.6,1.1-46.3,2.2-70
	c2.2-52.1,6.3-102.3,13.3-130.1c8.4-32.8,27.4-54.4,44.7-70.2l14.2-12.5c14.2,2.8,29.3,2,44.4-5.3c16.5-8,34.2-16.5,37.1-14.3
	c21.5,15.8,36.1,51.2,43.9,96.4c0,0.2,0.1,0.4,0.1,0.7c4.5,28.1,6.7,56.6,6.4,85.1c0,11.2-0.3,22.8-1,34.2c-3.2,51.6-1,97.5,1,129.3
	c0.4,6.3,0.8,12,1.2,17.1C2349.5,989.5,2350,996.6,2350.1,1001.6z"/>
<path class="st4" d="M2347.7,963.4c-118.4-136.7-45-236.1-45-236.1l38.5-12.5c4.5,28.1,6.7,56.6,6.4,85.1c0,11.2-0.3,22.8-1,34.2
	C2343.5,885.6,2345.6,931.5,2347.7,963.4z"/>
<path class="st31" d="M2277,569.3c0,0-18.1,32.9-52.4,42.1c-1-7.3-1.6-14.6-1.7-22l27.6-21.7L2277,569.3z"/>
<path class="st9" d="M2210.3,588.5c0,0,68.1,11.2,74.5-30.7s19.5-68.7-23.7-77.6s-54.1,5.8-59.7,19.3
	C2195.8,513,2192.7,584.5,2210.3,588.5z"/>
<path class="st32" d="M2309.6,475.2c0.6-0.7,2-1.3,5.2-1.5c-1.8-1-3.8-1.6-5.9-1.7c-0.7-4.4-3-12.2-10.6-14.1c2.5,1.5,4.2,4,4.6,6.9
	c-8.8-9-27.7-15.6-79.9-11.5c-68.8,5.4-46.1,49.5-37.2,54.8c8.9,5.3,31.3-9.1,47.9-7.8s19.8,25.3,25.4,28.6s3.4-2.5,11-6
	s8.4,9.2,6.1,17.4s8.3,19,8.3,19l10.6-11.4c10.6-11.4,20.6-59.7,15.7-70C2310.4,477,2310,476.1,2309.6,475.2z"/>
<path class="st30" d="M2297.2,617.4c0,0,43.1,20.4,63.8,51.8c32.1,48.7,69.2,226.1,69.9,242.6s-27.1,132.4-27.1,132.4
	s-28.2-1.9-35.5-16.1c0,0,5.6-119.2,2.1-126.9s-117.6-159.9-104.8-192.4S2297.2,617.4,2297.2,617.4z"/>
<path class="st9" d="M2394.6,1065.2l-20.4,34.1c-1.4-0.6-2.2-2-2-3.5c0.4-2.4,6.3-20.9,6.3-20.9L2394.6,1065.2z"/>
<path class="st9" d="M2374.1,1066.2c0,0-14.7,16.8-11.4,20.6l10.6-8.2L2374.1,1066.2z"/>
<path class="st2" d="M1453.6,1107.8c-4.1-0.6-8.3,0.2-11.9,2.2C1441.8,1110,1449.6,1112.7,1453.6,1107.8z"/>
<path class="st33" d="M1443.8,1085.6c-48,3.5-91.6,6.3-122.1,16.4c-28.1,9.3-45.3,21.8-45.3,35.5c0,15.2,18.7,31.6,55.2,38.5
	c30.6,5.8,78.9,17.7,112.3,13.4c41.9-5.4,79.1-4.6,108.3-12.3l-13.5-5l-94.6-34.6l152.3,4.2l14.3,0.4c0.4-1.5,0.6-3,0.7-4.6
	c0-14.7-19.7-28-51.4-37.4C1529.7,1091.1,1488.7,1082.4,1443.8,1085.6z"/>
<path class="st34" d="M1596.3,1141.7l-152.3-4.2l94.6,34.6c-9.4,2.1-19.7,3.9-30.6,5.4c-19.5,2.6-42,0.8-64,4
	c-36.4,5.3-70-6.9-97-10c-29-3.3-59.4-20.7-56.1-34c3.4-13.8,23.1-29.9,58.3-34.6c26.5-3.5,61.4-11.7,97.2-11.7
	c29,0,53.4,7.2,76.8,8.7c44.2,2.7,73.7,21.7,73.7,37.6C1596.9,1138.9,1596.7,1140.3,1596.3,1141.7z"/>
<path class="st12" d="M1363.6,1132.7c0,1.5-3.2,2.7-7.2,2.7s-7.2-1.2-7.2-2.7s3.2-2.7,7.2-2.7S1363.6,1131.2,1363.6,1132.7z"/>
<path class="st12" d="M1407.1,1119.5c0,1.5-3.2,2.7-7.2,2.7s-7.2-1.2-7.2-2.7s3.2-2.7,7.2-2.7S1407.1,1118,1407.1,1119.5z"/>
<path class="st12" d="M1380.2,1112.3c0,1.2-2.7,2.3-5.9,2.3s-5.9-1-5.9-2.3s2.6-2.3,5.9-2.3S1380.2,1111,1380.2,1112.3z"/>
<path class="st12" d="M1433.6,1106.7c0,1.4-3,2.5-6.6,2.5s-6.6-1.1-6.6-2.5s2.9-2.5,6.6-2.5S1433.6,1105.3,1433.6,1106.7z"/>
<ellipse class="st12" cx="1423.2" cy="1132.7" rx="10.4" ry="4"/>
<path class="st12" d="M1456.1,1118.2c0,1.5-3.2,2.7-7.2,2.7s-7.2-1.2-7.2-2.7s3.2-2.7,7.2-2.7S1456.1,1116.7,1456.1,1118.2z"/>
<path class="st12" d="M1489.2,1119.6c0,0.8-1.6,1.4-3.6,1.4s-3.6-0.6-3.6-1.4s1.6-1.4,3.6-1.4S1489.2,1118.8,1489.2,1119.6z"/>
<ellipse class="st12" cx="1470.6" cy="1107.8" rx="3.6" ry="1.4"/>
<path class="st12" d="M1433.6,1152c0,0.8-1.6,1.4-3.6,1.4s-3.6-0.6-3.6-1.4s1.6-1.4,3.6-1.4S1433.6,1151.2,1433.6,1152z"/>
<path class="st12" d="M1458.1,1158.2c0,0.8-1.6,1.4-3.6,1.4s-3.6-0.6-3.6-1.4s1.6-1.4,3.6-1.4S1458.1,1157.4,1458.1,1158.2z"/>
<ellipse class="st12" cx="1395.8" cy="1147.4" rx="8.1" ry="3.1"/>
<path class="st2" d="M1357.4,1148.2c-3.5-0.7-7.2-0.3-10.5,1.4C1347,1149.6,1353.7,1152.3,1357.4,1148.2z"/>
<path class="st2" d="M1398.3,1128.7c-4.8-1-9.8-0.3-14.2,1.8C1384.1,1130.5,1393.2,1134.2,1398.3,1128.7z"/>
<path class="st2" d="M1475.7,1118.2c-4.9,0.2-9.6,2.1-13.3,5.3C1462.4,1123.5,1472.2,1124.8,1475.7,1118.2z"/>
<path class="st2" d="M1510.1,1122.2c-4.2-2.4-9.2-3.3-14-2.6C1496.1,1119.6,1503.6,1125.9,1510.1,1122.2z"/>
<path class="st2" d="M1455,1133.4c-2.5-3.3-6-5.7-10-6.8C1445,1126.6,1448.7,1134,1455,1133.4z"/>
<path class="st2" d="M1442.8,1140.8c-4.1-0.1-8.2,1.2-11.5,3.6C1431.3,1144.4,1439.4,1146.1,1442.8,1140.8z"/>
<path class="st2" d="M1448.7,1164c-3.5-2.2-7.6-3.2-11.7-2.8C1436.9,1161.2,1443,1166.8,1448.7,1164z"/>
<path class="st2" d="M1457.8,1148.4c-4.1,0-8.1,1.4-11.4,4C1446.4,1152.4,1454.6,1153.9,1457.8,1148.4z"/>
<path class="st2" d="M1429.2,1119.7c-4.1-0.7-8.3-0.1-11.9,1.8C1417.2,1121.5,1425,1124.5,1429.2,1119.7z"/>
<path class="st2" d="M1413.5,1112.9c-3.2-2.6-7.2-4.1-11.3-4.2C1402.2,1108.8,1407.6,1115.1,1413.5,1112.9z"/>
<path class="st35" d="M1367.1,1151.6L1367.1,1151.6c-7,1.8-10.6,5.4-7.8,8l0,0c2,2,6.6,1.6,11.7,0.5l2.6,2.5
	c0.7,0.4,1.6,0.5,2.3,0.2l5-1.3c0.9-0.2,1.4-0.7,1-1.1l-2.6-2.5c4.7-1.4,7.6-2.8,5.5-4.9l0,0
	C1382.2,1150.5,1374.2,1149.8,1367.1,1151.6z"/>
<path class="st35" d="M1500.7,1105.7L1500.7,1105.7c5.7,1.4,8.6,4.4,6.4,6.5l0,0c-1.7,1.6-5.4,1.3-9.5,0.4l-2.1,2.1
	c-0.6,0.3-1.3,0.4-1.9,0.2l-4.1-1c-0.8-0.2-1.1-0.6-0.8-0.9l2.1-2c-3.8-1.1-6.2-2.3-4.5-4l0,0
	C1488.5,1104.8,1495,1104.2,1500.7,1105.7z"/>
<path class="st35" d="M1418.9,1140.5L1418.9,1140.5c5.7,1.4,8.6,4.4,6.4,6.5l0,0c-1.7,1.6-5.4,1.3-9.5,0.4l-2.1,2
	c-0.6,0.3-1.3,0.4-1.9,0.2l-4.1-1c-0.8-0.2-1.1-0.6-0.8-0.9l2.1-2c-3.8-1.1-6.2-2.3-4.5-4l0,0
	C1406.6,1139.6,1413.2,1139,1418.9,1140.5z"/>
<path class="st35" d="M1370.4,1118.2L1370.4,1118.2c-5.7,1.5-8.6,4.4-6.4,6.6l0,0c1.7,1.6,5.4,1.3,9.5,0.4l2.1,2
	c0.6,0.3,1.3,0.4,1.9,0.2l4.1-1c0.8-0.2,1.1-0.6,0.8-0.9l-2.1-2c3.8-1.1,6.2-2.3,4.5-4l0,0
	C1382.6,1117.3,1376.1,1116.8,1370.4,1118.2z"/>
<path class="st33" d="M1620.1,1137.3l-131.5-3.6l-18-5v4.5l102.6,37.5c31-8.1,51.8-19.9,55.5-33.2v-4.6L1620.1,1137.3z"/>
<path class="st36" d="M1628.8,1133c-3.8,13.3-24.6,25-55.5,33.2l-46.5-17l-9.7-3.5l0,0l-46.4-17L1628.8,1133z"/>
<path class="st12" d="M1523.2,1136.8c0,1.5-3.2,2.7-7.2,2.7s-7.2-1.2-7.2-2.7s3.2-2.7,7.2-2.7S1523.2,1135.3,1523.2,1136.8z"/>
<path class="st12" d="M1530.8,1146.7c0,1.1-1.7,2-4.1,2.5l-9.7-3.5c1.1-1,3.6-1.7,6.6-1.7C1527.6,1144,1530.8,1145.2,1530.8,1146.7z
	"/>
<path class="st12" d="M1556.4,1147.3c0,0.8-1.6,1.4-3.6,1.4s-3.6-0.6-3.6-1.4s1.6-1.4,3.6-1.4S1556.4,1146.6,1556.4,1147.3z"/>
<ellipse class="st12" cx="1572" cy="1139.5" rx="3.6" ry="1.4"/>
<path class="st12" d="M1539.2,1137.4c0,0.8-1.6,1.4-3.6,1.4s-3.6-0.6-3.6-1.4s1.6-1.4,3.6-1.4S1539.2,1136.7,1539.2,1137.4z"/>
<path class="st12" d="M1557.6,1135c0,1.2-2.6,2.2-5.9,2.2s-5.9-1-5.9-2.2s2.6-2.3,5.9-2.3S1557.6,1133.8,1557.6,1135z"/>
<path class="st12" d="M1551.7,1142.4c0,0.8-1.8,1.5-4,1.5s-4-0.7-4-1.5s1.8-1.5,4-1.5S1551.7,1141.5,1551.7,1142.4z"/>
<path class="st12" d="M1499.3,1134c0,0.6-1.2,1-2.6,1s-2.6-0.4-2.6-1s1.2-1,2.6-1S1499.3,1133.5,1499.3,1134z"/>
<path class="st2" d="M1529.7,1137.6c-3.4,0.2-6.6,1.4-9.2,3.7C1520.5,1141.3,1527.2,1142.2,1529.7,1137.6z"/>
<path class="st2" d="M1589,1141.1c-2.7-2.1-6-3.2-9.4-3.2C1579.6,1137.9,1584.1,1143,1589,1141.1z"/>
<path class="st2" d="M1542.2,1146.7c-2.8-2-6.1-3-9.5-2.9C1532.7,1143.8,1537.4,1148.7,1542.2,1146.7z"/>
<path class="st2" d="M1573.2,1150c-3.4-0.3-6.8,0.6-9.6,2.5C1563.6,1152.5,1570.2,1154.2,1573.2,1150z"/>
<path class="st2" d="M1494.4,1131c-3-0.5-6,0-8.7,1.4C1485.7,1132.4,1491.4,1134.4,1494.4,1131z"/>
<path class="st33" d="M1305.7,546c-21.3,3.1-40.6,5.6-54.1,14.5c-12.4,8.2-20.1,19.2-20.1,31.4c0,13.5,8.3,27.9,24.4,34
	c13.6,5.1,34.9,15.6,49.7,11.8c18.6-4.7,35-4.1,48-10.9l-6-4.4l-41.9-30.6l67.5,3.7l6.3,0.3c0.2-1.3,0.3-2.7,0.3-4.1
	c0-13-8.7-24.7-22.8-33.1C1343.8,550.9,1325.6,543.2,1305.7,546z"/>
<path class="st34" d="M1373.3,595.7l-67.5-3.7l41.9,30.6c-4.4,2-8.9,3.6-13.6,4.8c-8.6,2.3-18.6,0.7-28.3,3.5
	c-16.1,4.7-31-6.1-42.9-8.8c-12.8-2.9-26.3-18.3-24.8-30.1c1.5-12.2,10.2-26.4,25.8-30.6c11.7-3.1,27.2-10.4,43-10.4
	c12.9,0,23.7,6.4,34,7.7c19.6,2.4,32.7,19.2,32.7,33.3C1373.5,593.2,1373.4,594.4,1373.3,595.7z"/>
<path class="st12" d="M1270.2,587.7c0,1.3-1.4,2.4-3.2,2.4s-3.2-1.1-3.2-2.4s1.4-2.4,3.2-2.4S1270.2,586.4,1270.2,587.7z"/>
<path class="st12" d="M1289.4,576c0,1.3-1.4,2.4-3.2,2.4s-3.2-1.1-3.2-2.4s1.4-2.4,3.2-2.4S1289.4,574.7,1289.4,576z"/>
<ellipse class="st12" cx="1274.9" cy="569.6" rx="2.6" ry="2"/>
<path class="st12" d="M1301.2,564.7c0,1.2-1.3,2.2-2.9,2.2s-2.9-1-2.9-2.2s1.3-2.2,2.9-2.2S1301.2,563.4,1301.2,564.7z"/>
<path class="st12" d="M1301.2,587.7c0,1.9-2.1,3.5-4.6,3.5s-4.6-1.6-4.6-3.5s2-3.5,4.6-3.5S1301.2,585.8,1301.2,587.7z"/>
<path class="st12" d="M1311.2,574.9c0,1.3-1.4,2.4-3.2,2.4s-3.2-1.1-3.2-2.4s1.4-2.4,3.2-2.4S1311.2,573.5,1311.2,574.9z"/>
<path class="st12" d="M1325.8,576.1c0.2,0.9-0.3,1.8-1.2,2c-0.9,0.2-1.8-0.3-2-1.2s0.3-1.8,1.2-2c0.1,0,0.3-0.1,0.4-0.1
	C1325,574.8,1325.7,575.3,1325.8,576.1z"/>
<path class="st12" d="M1319.2,565.7c0.2,0.9-0.3,1.8-1.2,2c-0.9,0.2-1.8-0.3-2-1.2s0.3-1.8,1.2-2c0.1,0,0.3-0.1,0.4-0.1
	C1318.4,564.4,1319.1,564.9,1319.2,565.7z"/>
<path class="st12" d="M1301.2,604.7c0.2,0.9-0.3,1.8-1.2,2c-0.9,0.2-1.8-0.3-2-1.2s0.3-1.8,1.2-2c0.1,0,0.3-0.1,0.4-0.1
	C1300.4,603.4,1301.1,604,1301.2,604.7z"/>
<path class="st12" d="M1312,610.3c0.2,0.9-0.3,1.8-1.2,2c-0.9,0.2-1.8-0.3-2-1.2s0.3-1.8,1.2-2c0.1,0,0.3-0.1,0.4-0.1
	C1311.2,609,1311.9,609.5,1312,610.3z"/>
<path class="st12" d="M1288,600.8c0,1.5-1.6,2.7-3.6,2.7s-3.6-1.2-3.6-2.7s1.6-2.7,3.6-2.7S1288,599.2,1288,600.8z"/>
<path class="st2" d="M1267.5,601.4c-1.6-0.7-3.5-0.2-4.6,1.2C1262.8,602.6,1265.8,605,1267.5,601.4z"/>
<path class="st2" d="M1285.6,584.1c0,0-3.2-1.6-6.3,1.6C1279.3,585.8,1283.3,589,1285.6,584.1z"/>
<path class="st2" d="M1319.8,574.9c0,0-3.3,0-5.9,4.7C1314,579.6,1318.3,580.7,1319.8,574.9z"/>
<path class="st2" d="M1335.1,578.4c0,0-2.8-3.5-6.2-2.3C1328.9,576.1,1332.2,581.7,1335.1,578.4z"/>
<path class="st2" d="M1310.7,588.3c0,0-1.6-4.6-4.4-6C1306.3,582.3,1307.9,588.9,1310.7,588.3z"/>
<path class="st2" d="M1305.3,594.9c0,0-2.8-0.4-5.1,3.2C1300.2,598.1,1303.8,599.6,1305.3,594.9z"/>
<path class="st2" d="M1307.9,615.4c0,0-2.3-3.2-5.2-2.5C1302.7,613,1305.4,617.9,1307.9,615.4z"/>
<path class="st2" d="M1311.9,601.7c0,0-2.8-0.2-5,3.5C1306.9,605.2,1310.5,606.5,1311.9,601.7z"/>
<path class="st2" d="M1299.2,576.2c0,0-2.7-1.2-5.3,1.6C1294,577.8,1297.4,580.4,1299.2,576.2z"/>
<path class="st2" d="M1292.3,570.2c0,0-2.1-3.7-5-3.7C1287.3,566.5,1289.7,572.1,1292.3,570.2z"/>
<path class="st35" d="M1271.8,604.5L1271.8,604.5c-3.1,1.6-4.7,4.8-3.5,7.1l0,0c0.9,1.8,2.9,1.4,5.2,0.4l1.2,2.2
	c0.2,0.3,0.7,0.4,1,0.2l2.2-1.1c0.4-0.2,0.6-0.6,0.5-0.9l-1.2-2.2c2.1-1.2,3.4-2.5,2.4-4.3l0,0
	C1278.4,603.5,1274.9,602.9,1271.8,604.5z"/>
<path class="st35" d="M1330.9,563.8L1330.9,563.8c2.5,1.3,3.8,3.9,2.8,5.8l0,0c-0.7,1.4-2.4,1.1-4.2,0.3l-0.9,1.8
	c-0.2,0.3-0.6,0.3-0.8,0.2l-1.8-0.9c-0.3-0.1-0.5-0.4-0.4-0.8l0.9-1.8c-1.7-1-2.8-2-2-3.5l0,0C1325.5,563,1328.4,562.5,1330.9,563.8
	z"/>
<path class="st35" d="M1294.7,594.6L1294.7,594.6c2.5,1.3,3.8,3.9,2.8,5.8l0,0c-0.7,1.4-2.4,1.1-4.2,0.3l-0.9,1.8
	c-0.2,0.3-0.6,0.3-0.8,0.2l-1.8-0.9c-0.3-0.1-0.5-0.4-0.4-0.8l0.9-1.8c-1.7-1-2.8-2-2-3.5l0,0
	C1289.3,593.8,1292.1,593.3,1294.7,594.6z"/>
<path class="st35" d="M1273.2,574.9L1273.2,574.9c-2.5,1.3-3.8,3.9-2.8,5.8l0,0c0.7,1.4,2.4,1.1,4.2,0.3l0.9,1.8
	c0.2,0.3,0.6,0.3,0.8,0.2l1.8-0.9c0.3-0.1,0.5-0.5,0.4-0.8l-0.9-1.8c1.7-1,2.8-2,2-3.5l0,0C1278.6,574.1,1275.7,573.6,1273.2,574.9z
	"/>
<path class="st33" d="M1383.8,591.8l-58.2-3.2l-8-4.4v4l45.4,33.2c13.7-7.2,22.9-17.6,24.6-29.3v-4L1383.8,591.8z"/>
<path class="st36" d="M1387.7,588c-1.7,11.7-10.9,22.1-24.6,29.3l-20.6-15l-4.3-3.1l0,0l-20.6-15L1387.7,588z"/>
<path class="st12" d="M1340.9,591.3c0,1.3-1.4,2.4-3.2,2.4s-3.2-1.1-3.2-2.4s1.4-2.4,3.2-2.4S1340.9,590,1340.9,591.3z"/>
<path class="st12" d="M1344.2,600.1c-0.1,1-0.8,1.9-1.8,2.2l-4.3-3.1c0.6-1,1.8-1.5,2.9-1.5C1342.8,597.7,1344.2,598.8,1344.2,600.1
	z"/>
<path class="st12" d="M1355.6,600.7c0.2,0.9-0.3,1.8-1.2,2c-0.9,0.2-1.8-0.3-2-1.2s0.3-1.8,1.2-2c0.1,0,0.3-0.1,0.4-0.1
	C1354.8,599.4,1355.5,599.9,1355.6,600.7z"/>
<path class="st12" d="M1364.1,593.7c0.2,0.9-0.3,1.8-1.2,2c-0.9,0.2-1.8-0.3-2-1.2s0.3-1.8,1.2-2c0.1,0,0.3-0.1,0.4-0.1
	C1363.3,592.4,1364,593,1364.1,593.7z"/>
<path class="st12" d="M1348,591.9c0.2,0.9-0.3,1.8-1.2,2c-0.9,0.2-1.8-0.3-2-1.2s0.3-1.8,1.2-2c0.1,0,0.3-0.1,0.4-0.1
	C1347.2,590.6,1347.9,591.2,1348,591.9z"/>
<path class="st12" d="M1356.1,589.8c0,1.1-1.2,2-2.6,2s-2.6-0.9-2.6-2s1.2-2,2.6-2S1356.1,588.7,1356.1,589.8z"/>
<path class="st12" d="M1353.5,596.3c0.3,1-0.3,2-1.3,2.2c-1,0.3-2-0.3-2.2-1.3c-0.3-1,0.3-2,1.3-2.2c0.2,0,0.3-0.1,0.5-0.1
	C1352.6,594.8,1353.4,595.4,1353.5,596.3z"/>
<path class="st12" d="M1330.3,588.9c0.2,0.6-0.2,1.3-0.8,1.5c-0.6,0.2-1.3-0.2-1.5-0.8s0.2-1.3,0.8-1.5c0.1,0,0.2,0,0.3,0
	C1329.7,587.9,1330.2,588.3,1330.3,588.9z"/>
<path class="st2" d="M1343.8,592.1c0,0-2.3,0-4.1,3.2C1339.7,595.3,1342.7,596.1,1343.8,592.1z"/>
<path class="st2" d="M1370,595.1c0,0-1.7-3-4.2-2.8C1365.9,592.3,1367.9,596.8,1370,595.1z"/>
<path class="st2" d="M1349.3,600.1c0,0-1.8-2.8-4.2-2.5C1345.1,597.5,1347.2,601.9,1349.3,600.1z"/>
<path class="st2" d="M1363.1,603c0,0-2.3-0.6-4.2,2.2C1358.8,605.2,1361.7,606.7,1363.1,603z"/>
<path class="st2" d="M1328.1,586.2c-1.4-0.5-3,0-3.8,1.2c1,0.8,2.6,0.7,3.4-0.4C1327.9,586.8,1328,586.5,1328.1,586.2z"/>
<path class="st33" d="M1492.2,667.4c-21.3,3.1-40.6,5.6-54.1,14.5c-12.4,8.2-20.1,19.2-20.1,31.4c0,13.5,8.3,27.9,24.4,34
	c13.6,5.1,34.9,15.6,49.7,11.8c18.6-4.7,35-4.1,48-10.9l-6-4.4l-41.9-30.6l67.5,3.7l6.3,0.3c0.2-1.3,0.3-2.7,0.3-4.1
	c0-13-8.7-24.7-22.8-33.1C1530.2,672.2,1512.1,664.5,1492.2,667.4z"/>
<path class="st34" d="M1559.7,717l-67.5-3.7l41.9,30.6c-4.4,2-8.9,3.6-13.6,4.8c-8.6,2.3-18.6,0.7-28.3,3.5
	c-16.1,4.7-31-6.1-42.9-8.8c-12.8-2.9-26.3-18.3-24.8-30.1c1.5-12.2,10.2-26.4,25.8-30.6c11.7-3.1,27.2-10.4,43-10.4
	c12.9,0,23.7,6.4,34,7.7c19.6,2.4,32.7,19.2,32.7,33.3C1560,714.5,1559.9,715.8,1559.7,717z"/>
<path class="st12" d="M1456.7,709c0,1.3-1.4,2.4-3.2,2.4s-3.2-1.1-3.2-2.4s1.4-2.4,3.2-2.4S1456.7,707.7,1456.7,709z"/>
<path class="st12" d="M1475.9,697.4c0,1.3-1.4,2.4-3.2,2.4s-3.2-1.1-3.2-2.4s1.4-2.4,3.2-2.4S1475.9,696,1475.9,697.4z"/>
<path class="st12" d="M1464,691c0,1.1-1.2,2-2.6,2s-2.6-0.9-2.6-2s1.2-2,2.6-2S1464,689.8,1464,691z"/>
<path class="st12" d="M1487.7,686c0,1.2-1.3,2.2-2.9,2.2s-2.9-1-2.9-2.2s1.3-2.2,2.9-2.2S1487.7,684.8,1487.7,686z"/>
<path class="st12" d="M1487.7,709c0,1.9-2.1,3.5-4.6,3.5s-4.6-1.6-4.6-3.5s2-3.5,4.6-3.5S1487.7,707.1,1487.7,709z"/>
<path class="st12" d="M1497.6,696.2c0,1.3-1.4,2.4-3.2,2.4s-3.2-1.1-3.2-2.4s1.4-2.4,3.2-2.4S1497.6,694.9,1497.6,696.2z"/>
<path class="st12" d="M1512.3,697.4c0.2,0.9-0.3,1.8-1.2,2c-0.9,0.2-1.8-0.3-2-1.2s0.3-1.8,1.2-2c0.1,0,0.3-0.1,0.4-0.1
	C1511.5,696.1,1512.2,696.6,1512.3,697.4z"/>
<path class="st12" d="M1505.7,687c0.2,0.9-0.3,1.8-1.2,2c-0.9,0.2-1.8-0.3-2-1.2s0.3-1.8,1.2-2c0.1,0,0.3-0.1,0.4-0.1
	C1504.8,685.7,1505.5,686.2,1505.7,687z"/>
<path class="st12" d="M1487.7,726.1c0.2,0.9-0.3,1.8-1.2,2c-0.9,0.2-1.8-0.3-2-1.2s0.3-1.8,1.2-2c0.1,0,0.3-0.1,0.4-0.1
	C1486.9,724.8,1487.6,725.3,1487.7,726.1z"/>
<path class="st12" d="M1498.5,731.6c0.2,0.9-0.3,1.8-1.2,2c-0.9,0.2-1.8-0.3-2-1.2s0.3-1.8,1.2-2c0.1,0,0.3-0.1,0.4-0.1
	C1497.7,730.3,1498.4,730.8,1498.5,731.6z"/>
<path class="st12" d="M1474.5,722.1c0,1.5-1.6,2.7-3.6,2.7s-3.6-1.2-3.6-2.7s1.6-2.7,3.6-2.7S1474.5,720.6,1474.5,722.1z"/>
<path class="st2" d="M1454,722.8c-1.6-0.7-3.5-0.2-4.6,1.2C1449.4,724,1452.3,726.3,1454,722.8z"/>
<path class="st2" d="M1472,705.5c0,0-3.2-1.6-6.3,1.6C1465.8,707.1,1469.8,710.3,1472,705.5z"/>
<path class="st2" d="M1506.3,696.2c0,0-3.3,0-5.9,4.7C1500.4,700.9,1504.8,702.1,1506.3,696.2z"/>
<path class="st2" d="M1521.6,699.7c0,0-2.8-3.5-6.2-2.3C1515.3,697.4,1518.7,703,1521.6,699.7z"/>
<path class="st2" d="M1497.2,709.7c0,0-1.6-4.6-4.4-6C1492.8,703.6,1494.4,710.2,1497.2,709.7z"/>
<path class="st2" d="M1491.8,716.2c0,0-2.8-0.4-5.1,3.2C1486.7,719.4,1490.3,720.9,1491.8,716.2z"/>
<path class="st2" d="M1494.4,736.8c0,0-2.3-3.2-5.2-2.5C1489.2,734.3,1491.9,739.3,1494.4,736.8z"/>
<path class="st2" d="M1498.4,723c0,0-2.8-0.2-5,3.5C1493.3,726.5,1497,727.8,1498.4,723z"/>
<path class="st2" d="M1485.7,697.6c0,0-2.7-1.2-5.3,1.6C1480.4,699.2,1483.9,701.8,1485.7,697.6z"/>
<path class="st2" d="M1478.8,691.5c0,0-2.1-3.7-5-3.7C1473.8,687.8,1476.2,693.4,1478.8,691.5z"/>
<path class="st35" d="M1458.2,725.8L1458.2,725.8c-3.1,1.6-4.7,4.8-3.5,7.1l0,0c0.9,1.8,2.9,1.4,5.2,0.4l1.2,2.2
	c0.2,0.3,0.7,0.4,1,0.2l2.2-1.1c0.4-0.1,0.6-0.6,0.5-0.9l-1.2-2.2c2.1-1.2,3.4-2.5,2.4-4.3l0,0
	C1464.9,724.8,1461.3,724.2,1458.2,725.8z"/>
<path class="st35" d="M1517.4,685.1L1517.4,685.1c2.5,1.3,3.8,3.9,2.8,5.8l0,0c-0.7,1.4-2.4,1.1-4.2,0.3l-0.9,1.8
	c-0.2,0.3-0.6,0.3-0.8,0.1l-1.8-0.9c-0.3-0.1-0.5-0.4-0.4-0.8l0.9-1.8c-1.7-1-2.8-2-2-3.5l0,0C1512,684.3,1514.9,683.8,1517.4,685.1
	z"/>
<path class="st35" d="M1481.2,715.9L1481.2,715.9c2.5,1.3,3.8,3.9,2.8,5.8l0,0c-0.7,1.4-2.4,1.1-4.2,0.3l-0.9,1.8
	c-0.2,0.3-0.6,0.3-0.8,0.1l-1.8-0.9c-0.3-0.1-0.5-0.4-0.4-0.8l0.9-1.8c-1.7-1-2.8-2-2-3.5l0,0
	C1475.7,715.1,1478.6,714.6,1481.2,715.9z"/>
<path class="st35" d="M1459.7,696.2L1459.7,696.2c-2.5,1.3-3.8,3.9-2.8,5.8l0,0c0.7,1.4,2.4,1.1,4.2,0.3l0.9,1.8
	c0.2,0.3,0.6,0.3,0.8,0.1l1.8-0.9c0.3-0.1,0.5-0.4,0.4-0.8l-0.9-1.8c1.7-1,2.8-2,2-3.5l0,0C1465.1,695.4,1462.2,694.9,1459.7,696.2z
	"/>
<path class="st33" d="M1570.3,713.1l-58.3-3.2l-8-4.4v4l45.4,33.2c13.7-7.2,22.9-17.6,24.6-29.3v-4L1570.3,713.1z"/>
<path class="st36" d="M1574.1,709.3c-1.7,11.7-10.9,22.1-24.6,29.3l-20.6-15.1l-4.3-3.1l0,0l-20.6-15L1574.1,709.3z"/>
<path class="st12" d="M1527.4,712.6c0,1.3-1.4,2.4-3.2,2.4s-3.2-1.1-3.2-2.4s1.4-2.4,3.2-2.4S1527.4,711.3,1527.4,712.6z"/>
<path class="st12" d="M1530.7,721.5c-0.1,1-0.8,1.9-1.8,2.2l-4.3-3.1c0.6-1,1.8-1.5,2.9-1.5C1529.3,719,1530.7,720.1,1530.7,721.5z"
	/>
<path class="st12" d="M1542.1,722c0.2,0.9-0.3,1.8-1.2,2c-0.9,0.2-1.8-0.3-2-1.2s0.3-1.8,1.2-2c0.1,0,0.3-0.1,0.4-0.1
	C1541.2,720.7,1542,721.2,1542.1,722z"/>
<path class="st12" d="M1550.6,715.1c0.2,0.9-0.3,1.8-1.2,2c-0.9,0.2-1.8-0.3-2-1.2s0.3-1.8,1.2-2c0.1,0,0.3-0.1,0.4-0.1
	C1549.8,713.8,1550.5,714.3,1550.6,715.1z"/>
<path class="st12" d="M1534.5,713.2c0.2,0.9-0.3,1.8-1.2,2c-0.9,0.2-1.8-0.3-2-1.2s0.3-1.8,1.2-2c0.1,0,0.3-0.1,0.4-0.1
	C1533.6,711.9,1534.4,712.5,1534.5,713.2z"/>
<path class="st12" d="M1542.6,711.1c0,1.1-1.2,2-2.6,2s-2.6-0.9-2.6-2s1.2-2,2.6-2S1542.6,710,1542.6,711.1z"/>
<path class="st12" d="M1540,717.6c0.3,1-0.3,2-1.3,2.2c-1,0.3-2-0.3-2.2-1.3s0.3-2,1.3-2.2c0.2,0,0.3-0.1,0.5-0.1
	C1539.1,716.1,1539.9,716.7,1540,717.6z"/>
<path class="st12" d="M1516.8,710.2c0.2,0.6-0.2,1.3-0.8,1.5c-0.6,0.2-1.3-0.2-1.5-0.8s0.2-1.3,0.8-1.5c0.1,0,0.2,0,0.3,0
	C1516.2,709.3,1516.7,709.7,1516.8,710.2z"/>
<path class="st2" d="M1530.2,713.4c0,0-2.3,0-4.1,3.2C1526.2,716.7,1529.1,717.5,1530.2,713.4z"/>
<path class="st2" d="M1556.5,716.5c0,0-1.7-3-4.2-2.8C1552.3,713.6,1554.4,718.1,1556.5,716.5z"/>
<path class="st2" d="M1535.8,721.4c0,0-1.8-2.8-4.2-2.6C1531.6,718.9,1533.7,723.2,1535.8,721.4z"/>
<path class="st2" d="M1549.5,724.3c0,0-2.3-0.5-4.2,2.2C1545.3,726.5,1548.2,728,1549.5,724.3z"/>
<path class="st2" d="M1514.6,707.5c-1.4-0.5-3,0-3.8,1.2c1,0.8,2.5,0.7,3.4-0.3C1514.4,708.1,1514.5,707.8,1514.6,707.5z"/>
<path class="st33" d="M1305.7,795.1c-21.3,3.1-40.6,5.6-54.1,14.5c-12.4,8.2-20.1,19.2-20.1,31.4c0,13.5,8.3,27.9,24.4,34
	c13.6,5.1,34.9,15.6,49.7,11.8c18.6-4.7,35-4.1,48-10.9l-6-4.4l-41.9-30.6l67.5,3.7l6.3,0.3c0.2-1.4,0.3-2.7,0.3-4.1
	c0-13-8.7-24.7-22.8-33.1C1343.8,800,1325.6,792.3,1305.7,795.1z"/>
<path class="st34" d="M1373.3,844.7l-67.5-3.7l41.9,30.6c-4.4,2-8.9,3.6-13.6,4.8c-8.6,2.3-18.6,0.7-28.3,3.5
	c-16.1,4.7-31-6.1-42.9-8.8c-12.8-2.9-26.3-18.3-24.8-30.1c1.5-12.2,10.2-26.4,25.8-30.6c11.7-3.1,27.2-10.4,43-10.4
	c12.9,0,23.7,6.4,34,7.7c19.6,2.4,32.7,19.2,32.7,33.3C1373.5,842.2,1373.4,843.5,1373.3,844.7z"/>
<path class="st12" d="M1270.2,836.8c0,1.3-1.4,2.4-3.2,2.4s-3.2-1.1-3.2-2.4s1.4-2.4,3.2-2.4S1270.2,835.4,1270.2,836.8z"/>
<path class="st12" d="M1289.4,825.1c0,1.3-1.4,2.4-3.2,2.4s-3.2-1.1-3.2-2.4s1.4-2.4,3.2-2.4S1289.4,823.8,1289.4,825.1z"/>
<path class="st12" d="M1277.6,818.7c0,1.1-1.2,2-2.6,2s-2.6-0.9-2.6-2s1.2-2,2.6-2S1277.6,817.6,1277.6,818.7z"/>
<path class="st12" d="M1301.2,813.8c0,1.2-1.3,2.2-2.9,2.2s-2.9-1-2.9-2.2s1.3-2.2,2.9-2.2S1301.2,812.5,1301.2,813.8z"/>
<path class="st12" d="M1301.2,836.8c0,1.9-2.1,3.5-4.6,3.5s-4.6-1.6-4.6-3.5s2-3.5,4.6-3.5S1301.2,834.8,1301.2,836.8z"/>
<path class="st12" d="M1311.2,824c0,1.3-1.4,2.4-3.2,2.4s-3.2-1.1-3.2-2.4s1.4-2.4,3.2-2.4S1311.2,822.6,1311.2,824z"/>
<path class="st12" d="M1325.8,825.2c0.2,0.9-0.3,1.8-1.2,2c-0.9,0.2-1.8-0.3-2-1.2s0.3-1.8,1.2-2c0.1,0,0.3-0.1,0.4-0.1
	C1325,823.9,1325.7,824.4,1325.8,825.2z"/>
<path class="st12" d="M1319.2,814.8c0.2,0.9-0.3,1.8-1.2,2c-0.9,0.2-1.8-0.3-2-1.2s0.3-1.8,1.2-2c0.1,0,0.3-0.1,0.4-0.1
	C1318.4,813.5,1319.1,814,1319.2,814.8z"/>
<path class="st12" d="M1301.2,853.8c0.2,0.9-0.3,1.8-1.2,2c-0.9,0.2-1.8-0.3-2-1.2s0.3-1.8,1.2-2c0.1,0,0.3-0.1,0.4-0.1
	C1300.4,852.5,1301.1,853.1,1301.2,853.8z"/>
<path class="st12" d="M1312,859.3c0.2,0.9-0.3,1.8-1.2,2c-0.9,0.2-1.8-0.3-2-1.2s0.3-1.8,1.2-2c0.1,0,0.3-0.1,0.4-0.1
	C1311.2,858,1311.9,858.6,1312,859.3z"/>
<path class="st12" d="M1288,849.8c0,1.5-1.6,2.7-3.6,2.7s-3.6-1.2-3.6-2.7s1.6-2.7,3.6-2.7S1288,848.3,1288,849.8z"/>
<path class="st2" d="M1267.5,850.5c-1.6-0.7-3.5-0.2-4.6,1.2C1262.8,851.7,1265.8,854.1,1267.5,850.5z"/>
<path class="st2" d="M1285.6,833.2c0,0-3.2-1.6-6.3,1.6C1279.3,834.8,1283.3,838.1,1285.6,833.2z"/>
<path class="st2" d="M1319.8,824c0,0-3.3,0-5.9,4.7C1314,828.7,1318.3,829.8,1319.8,824z"/>
<path class="st2" d="M1335.1,827.5c0,0-2.8-3.5-6.2-2.3C1328.9,825.2,1332.2,830.7,1335.1,827.5z"/>
<path class="st2" d="M1310.7,837.4c0,0-1.6-4.6-4.4-6C1306.3,831.4,1307.9,838,1310.7,837.4z"/>
<path class="st2" d="M1305.3,844c0,0-2.8-0.4-5.1,3.2C1300.2,847.2,1303.8,848.7,1305.3,844z"/>
<path class="st2" d="M1307.9,864.5c0,0-2.3-3.2-5.2-2.5C1302.7,862,1305.4,867,1307.9,864.5z"/>
<path class="st2" d="M1311.9,850.7c0,0-2.8-0.2-5,3.5C1306.9,854.3,1310.5,855.5,1311.9,850.7z"/>
<path class="st2" d="M1299.2,825.3c0,0-2.7-1.2-5.3,1.6C1294,826.9,1297.4,829.5,1299.2,825.3z"/>
<path class="st2" d="M1292.3,819.3c0,0-2.1-3.7-5-3.7C1287.3,815.6,1289.7,821.2,1292.3,819.3z"/>
<path class="st35" d="M1271.8,853.5L1271.8,853.5c-3.1,1.6-4.7,4.8-3.5,7.1l0,0c0.9,1.8,2.9,1.4,5.2,0.4l1.2,2.2
	c0.2,0.3,0.7,0.4,1,0.2l2.2-1.1c0.4-0.1,0.6-0.5,0.5-0.9l-1.2-2.2c2.1-1.2,3.4-2.5,2.4-4.3l0,0
	C1278.4,852.6,1274.9,852,1271.8,853.5z"/>
<path class="st35" d="M1330.9,812.9L1330.9,812.9c2.5,1.3,3.8,3.9,2.8,5.8l0,0c-0.7,1.4-2.4,1.1-4.2,0.3l-0.9,1.8
	c-0.2,0.3-0.6,0.3-0.8,0.2l-1.8-0.9c-0.3-0.1-0.5-0.5-0.4-0.8l0.9-1.8c-1.7-1-2.8-2-2-3.5l0,0
	C1325.5,812.1,1328.4,811.6,1330.9,812.9z"/>
<path class="st35" d="M1294.7,843.7L1294.7,843.7c2.5,1.3,3.8,3.9,2.8,5.8l0,0c-0.7,1.4-2.4,1.1-4.2,0.3l-0.9,1.8
	c-0.2,0.3-0.6,0.3-0.8,0.2l-1.8-0.9c-0.3-0.1-0.5-0.5-0.4-0.8l0.9-1.8c-1.7-1-2.8-2-2-3.5l0,0
	C1289.3,842.9,1292.1,842.4,1294.7,843.7z"/>
<path class="st35" d="M1273.2,824L1273.2,824c-2.5,1.3-3.8,3.9-2.8,5.8l0,0c0.7,1.4,2.4,1.1,4.2,0.3l0.9,1.8
	c0.2,0.3,0.6,0.3,0.8,0.2l1.8-0.9c0.3-0.1,0.5-0.5,0.4-0.8l-0.9-1.8c1.7-1,2.8-2,2-3.5l0,0C1278.6,823.2,1275.7,822.7,1273.2,824z"
	/>
<path class="st33" d="M1383.8,840.9l-58.2-3.2l-8-4.4v4l45.4,33.2c13.7-7.2,22.9-17.6,24.6-29.3v-4L1383.8,840.9z"/>
<path class="st36" d="M1387.7,837.1c-1.7,11.7-10.9,22.1-24.6,29.3l-20.6-15l-4.3-3.1l0,0l-20.6-15L1387.7,837.1z"/>
<path class="st12" d="M1340.9,840.4c0,1.3-1.4,2.4-3.2,2.4s-3.2-1.1-3.2-2.4s1.4-2.4,3.2-2.4S1340.9,839.1,1340.9,840.4z"/>
<path class="st12" d="M1344.2,849.2c-0.1,1-0.8,1.9-1.8,2.2l-4.3-3.1c0.6-1,1.8-1.5,2.9-1.5C1342.8,846.8,1344.2,847.9,1344.2,849.2
	z"/>
<path class="st12" d="M1355.6,849.8c0.2,0.9-0.3,1.8-1.2,2c-0.9,0.2-1.8-0.3-2-1.2s0.3-1.8,1.2-2c0.1,0,0.3-0.1,0.4-0.1
	C1354.8,848.5,1355.5,849,1355.6,849.8z"/>
<path class="st12" d="M1364.1,842.8c0.2,0.9-0.3,1.8-1.2,2c-0.9,0.2-1.8-0.3-2-1.2s0.3-1.8,1.2-2c0.1,0,0.3-0.1,0.4-0.1
	C1363.3,841.5,1364,842.1,1364.1,842.8z"/>
<path class="st12" d="M1348,841c0.2,0.9-0.3,1.8-1.2,2c-0.9,0.2-1.8-0.3-2-1.2s0.3-1.8,1.2-2c0.1,0,0.3-0.1,0.4-0.1
	C1347.2,839.7,1347.9,840.2,1348,841z"/>
<path class="st12" d="M1356.1,838.9c0,1.1-1.2,2-2.6,2s-2.6-0.9-2.6-2s1.2-2,2.6-2S1356.1,837.8,1356.1,838.9z"/>
<path class="st12" d="M1353.5,845.3c0.3,1-0.3,2-1.3,2.2c-1,0.3-2-0.3-2.2-1.3s0.3-2,1.3-2.2c0.2,0,0.3-0.1,0.5-0.1
	C1352.6,843.9,1353.4,844.5,1353.5,845.3z"/>
<path class="st12" d="M1330.3,838c0.2,0.6-0.2,1.3-0.8,1.5c-0.6,0.2-1.3-0.2-1.5-0.8s0.2-1.3,0.8-1.5c0.1,0,0.2,0,0.3,0
	C1329.7,837,1330.2,837.4,1330.3,838z"/>
<path class="st2" d="M1343.8,841.2c0,0-2.3,0-4.1,3.2C1339.7,844.4,1342.7,845.2,1343.8,841.2z"/>
<path class="st2" d="M1370,844.2c0,0-1.7-3-4.2-2.8C1365.9,841.4,1367.9,845.9,1370,844.2z"/>
<path class="st2" d="M1349.3,849.2c0,0-1.8-2.8-4.2-2.6C1345.1,846.6,1347.2,851,1349.3,849.2z"/>
<path class="st2" d="M1363.1,852.1c0,0-2.3-0.6-4.2,2.2C1358.8,854.3,1361.7,855.8,1363.1,852.1z"/>
<path class="st2" d="M1328.1,835.2c-1.4-0.5-3,0-3.8,1.2c1,0.8,2.6,0.7,3.4-0.4C1327.9,835.9,1328,835.6,1328.1,835.2z"/>
<path class="st33" d="M1618.4,1132.8c0,0-9.2,4.4-11.8,10s-13,3.6-17.6,7.2s-9.4,14.1-22.1,14v2.3l5.1,2c0,0,34.5-9.6,39.2-13.3
	s16-13.5,16-13.5l1.6-8.3L1618.4,1132.8z"/>
<path class="st17" d="M1418.6,1365.3h-100.4c-2.3,0-4.1-1.8-4.1-4.1l0,0c0-2.3,1.8-4.1,4.1-4.1h100.4c2.3,0,4.1,1.8,4.1,4.1l0,0
	C1422.7,1363.4,1420.9,1365.3,1418.6,1365.3z"/>
<path class="st17" d="M1418.6,1346.1h-100.4c-2.3,0-4.1-1.8-4.1-4.1l0,0c0-2.3,1.8-4.1,4.1-4.1h100.4c2.3,0,4.1,1.8,4.1,4.1l0,0
	C1422.7,1344.2,1420.9,1346.1,1418.6,1346.1z"/>
<path class="st35" d="M1363.1,696.4h-116.5c-2.5,0-4.5-2-4.5-4.5l0,0c0-2.5,2-4.5,4.5-4.5h116.5c2.5,0,4.5,2,4.5,4.5l0,0
	C1367.6,694.4,1365.6,696.4,1363.1,696.4z"/>
<path class="st35" d="M1363.1,714.7h-116.5c-2.5,0-4.5-2-4.5-4.5l0,0c0-2.5,2-4.5,4.5-4.5h116.5c2.5,0,4.5,2,4.5,4.5l0,0
	C1367.6,712.7,1365.6,714.7,1363.1,714.7z"/>
<path class="st35" d="M1363.1,733h-116.5c-2.5,0-4.5-2-4.5-4.5l0,0c0-2.5,2-4.5,4.5-4.5h116.5c2.5,0,4.5,2,4.5,4.5l0,0
	C1367.6,731,1365.6,733,1363.1,733z"/>
<path class="st35" d="M1562.3,565.9h-116.5c-2.5,0-4.5-2-4.5-4.5l0,0c0-2.5,2-4.5,4.5-4.5h116.5c2.5,0,4.5,2,4.5,4.5l0,0
	C1566.8,563.9,1564.8,565.9,1562.3,565.9z"/>
<path class="st35" d="M1562.3,584.2h-116.5c-2.5,0-4.5-2-4.5-4.5l0,0c0-2.5,2-4.5,4.5-4.5h116.5c2.5,0,4.5,2,4.5,4.5l0,0
	C1566.8,582.1,1564.8,584.1,1562.3,584.2z"/>
<path class="st35" d="M1562.3,602.5h-116.5c-2.5,0-4.5-2-4.5-4.5l0,0c0-2.5,2-4.5,4.5-4.5h116.5c2.5,0,4.5,2,4.5,4.5l0,0
	C1566.8,600.4,1564.8,602.4,1562.3,602.5z"/>
<path class="st35" d="M1562.3,825.4h-116.5c-2.5,0-4.5-2-4.5-4.5l0,0c0-2.5,2-4.5,4.5-4.5h116.5c2.5,0,4.5,2,4.5,4.5l0,0
	C1566.8,823.4,1564.8,825.4,1562.3,825.4z"/>
<path class="st35" d="M1562.3,843.7h-116.5c-2.5,0-4.5-2-4.5-4.5l0,0c0-2.5,2-4.5,4.5-4.5h116.5c2.5,0,4.5,2,4.5,4.5l0,0
	C1566.8,841.7,1564.8,843.7,1562.3,843.7z"/>
<path class="st35" d="M1562.3,862h-116.5c-2.5,0-4.5-2-4.5-4.5l0,0c0-2.5,2-4.5,4.5-4.5h116.5c2.5,0,4.5,2,4.5,4.5l0,0
	C1566.8,860,1564.8,862,1562.3,862z"/>
<path class="st26" d="M1881.1,839.2h-111.6c-18.4-0.1-33.3-15-33.4-33.4l0,0c0.1-18.4,15-33.3,33.4-33.4h111.6
	c18.4,0.1,33.3,15,33.4,33.4l0,0C1914.4,824.2,1899.5,839.1,1881.1,839.2z"/>
<path class="st0" d="M1803.9,796.2c0,0,21.2,29.7,21.1,28.5s21.6-42.1,21.6-42.1l-24.9,24.2L1803.9,796.2z"/>
<polygon class="st24" points="1473,1204.4 1401.4,1221.7 1379.1,1212.2 1448.5,1196.2 "/>
<path class="st37" d="M251.8,1651.2h2502.1c1.7,0,3.1,1.4,3.1,3.1v1.6c0,1.7-1.4,3.1-3.1,3.1H251.8c-1.7,0-3.1-1.4-3.1-3.1v-1.6
	C248.8,1652.6,250.1,1651.2,251.8,1651.2z"/>
</svg>
