<?xml version="1.0" encoding="iso-8859-1"?>
<!-- Generator: Adobe Illustrator 19.0.0, SVG Export Plug-In . SVG Version: 6.00 Build 0)  -->
<svg version="1.1" id="Capa_1" xmlns="http://www.w3.org/2000/svg" xmlns:xlink="http://www.w3.org/1999/xlink" x="0px" y="0px"
	 viewBox="0 0 512 512" style="enable-background:new 0 0 512 512;" xml:space="preserve">
<path style="fill:#418019;" d="M186.755,22.809C206.127,8.504,230.076,0.062,256,0.062s49.873,8.453,69.245,22.747l111.03,94.02
	H66.399L186.755,22.809z"/>
<polygon style="fill:#FF9A47;" points="206.168,457.504 217.078,391.888 230.839,309.059 285.539,335.443 294.922,391.888 
	305.804,457.335 "/>
<path style="fill:#E25D1B;" d="M294.922,391.888l-9.383-56.445l-54.7-26.384v0.001l-0.002-0.001l-24.669,148.444l30.502-0.14
	l3.077-44.757c0.744-11.65,10.409-20.718,22.083-20.718H294.922z"/>
<polygon style="fill:#FF9A47;" points="302.958,368.202 209.042,368.202 217.067,319.886 230.839,237.047 285.539,263.43 
	294.922,319.886 "/>
<g>
	<polygon style="fill:#E25D1B;" points="255.998,249.188 245.894,244.309 246.354,237.047 	"/>
	<path style="fill:#E25D1B;" d="M294.922,319.886l-9.383-56.456l-54.7-26.384v0.001l-0.002-0.001l-7.48,45.014l-6.288,37.826h0.002
		l-8.03,48.316h28.944l1.77-27.718c0.74-11.583,10.349-20.598,21.955-20.598L294.922,319.886L294.922,319.886z"/>
</g>
<polygon style="fill:#FF9A47;" points="302.958,296.198 209.042,296.198 217.078,247.872 230.839,165.043 285.539,191.426 
	294.922,247.872 "/>
<path style="fill:#E25D1B;" d="M294.922,247.872l-9.383-56.445l-54.7-26.384v0.001l-0.002-0.001L209.04,296.198h28.944l1.763-27.608
	c0.744-11.65,10.409-20.718,22.083-20.718L294.922,247.872L294.922,247.872z"/>
<polygon style="fill:#FF9A47;" points="302.958,224.184 209.042,224.184 213.608,196.714 215.301,186.515 230.839,93.028 
	256,116.829 285.539,119.412 296.699,186.515 298.392,196.714 298.392,196.724 "/>
<path style="fill:#E25D1B;" d="M298.392,196.714l-1.693-10.198l-11.159-67.103L256,116.829l-25.161-23.801l-15.538,93.487
	l-1.693,10.198l-4.566,27.47h28.944l3.174-49.78c0.23-3.609,1.768-7.01,4.325-9.568l0,0c5.807-5.807,15.222-5.807,21.029,0
	L298.392,196.714z"/>
<path style="fill:#E58B25;" d="M466.233,511.938H45.767c46.247-43.52,123.162-71.993,210.233-71.993
	c15.788,0,31.242,0.94,46.237,2.738C369.957,450.77,428.377,476.307,466.233,511.938z"/>
<path style="fill:#FFCB47;" d="M466.233,511.938H138.24c37.857-35.631,96.277-61.168,163.997-69.256
	C369.957,450.77,428.377,476.307,466.233,511.938z"/>
<path style="fill:#96C133;" d="M109.035,116.829H0C0,58.398,57.302,11.033,128,11.033c70.687,0,128,47.365,128,105.796"/>
<g>
	<path style="fill:#499421;" d="M255.997,116.827c-41.314-41.314-115.327-34.283-165.315,15.705S33.663,256.533,74.978,297.846
		L255.997,116.827z"/>
	<path style="fill:#499421;" d="M402.965,116.829H512c0-58.431-57.313-105.796-128-105.796c-70.698,0-128,47.365-128,105.796"/>
</g>
<path style="fill:#96C133;" d="M421.311,132.532c-49.987-49.987-124.001-57.018-165.315-15.705l121.161,121.161l38.363-13.81
	l-13.043,39.13l34.538,34.538C478.33,256.533,471.299,182.519,421.311,132.532z"/>
<g>
</g>
<g>
</g>
<g>
</g>
<g>
</g>
<g>
</g>
<g>
</g>
<g>
</g>
<g>
</g>
<g>
</g>
<g>
</g>
<g>
</g>
<g>
</g>
<g>
</g>
<g>
</g>
<g>
</g>
</svg>
